<svg width="35" height="35" viewBox="0 0 35 35" fill="none" xmlns="http://www.w3.org/2000/svg">
<path d="M20.207 11.1904C19.8584 11.5322 19.8584 12.0996 20.2002 12.4482L24.3564 16.6113H8.53809C8.05273 16.6113 7.65625 17.0078 7.65625 17.5C7.65625 17.9922 8.05273 18.3887 8.53809 18.3887H24.3496L20.1934 22.5517C19.8516 22.9004 19.8584 23.4609 20.2002 23.8095C20.5488 24.1513 21.1025 24.1513 21.4512 23.8027L27.084 18.1289C27.1592 18.0469 27.2207 17.958 27.2686 17.8486C27.3164 17.7392 27.3369 17.623 27.3369 17.5068C27.3369 17.2744 27.248 17.0556 27.084 16.8847L21.4512 11.2109C21.1162 10.8554 20.5557 10.8486 20.207 11.1904Z" fill="#333333"/>
</svg>
