<svg width="16" height="15" viewBox="0 0 16 15" fill="none" xmlns="http://www.w3.org/2000/svg">
<g clip-path="url(#clip0_15_966)">
<path d="M14.4537 4.44478C14.4632 4.57802 14.4632 4.7113 14.4632 4.84454C14.4632 8.9086 11.37 13.5914 5.71642 13.5914C3.97466 13.5914 2.35665 13.0869 0.995605 12.2113C1.24308 12.2398 1.481 12.2494 1.73799 12.2494C3.17515 12.2494 4.49813 11.764 5.55461 10.9359C4.20309 10.9074 3.07047 10.0222 2.68023 8.80392C2.87061 8.83246 3.06095 8.8515 3.26084 8.8515C3.53685 8.8515 3.81288 8.81342 4.06984 8.74682C2.66122 8.46127 1.60472 7.22397 1.60472 5.72969V5.69163C2.01396 5.92006 2.48989 6.06282 2.9943 6.08183C2.16625 5.52979 1.62376 4.58755 1.62376 3.52155C1.62376 2.9505 1.77602 2.42702 2.04253 1.97016C3.55586 3.83564 5.83062 5.05389 8.38135 5.18717C8.33377 4.95874 8.30521 4.72082 8.30521 4.48287C8.30521 2.78869 9.67577 1.40863 11.3794 1.40863C12.2646 1.40863 13.0641 1.77982 13.6256 2.37944C14.3204 2.2462 14.9867 1.98921 15.5768 1.63706C15.3483 2.35091 14.8629 2.95052 14.2253 3.33121C14.8439 3.26462 15.4435 3.09326 15.9955 2.85534C15.5768 3.46445 15.0533 4.00694 14.4537 4.44478Z" fill="#333333"/>
</g>
<defs>
<clipPath id="clip0_15_966">
<rect width="15" height="15" fill="white" transform="translate(0.995605)"/>
</clipPath>
</defs>
</svg>
