<svg width="16" height="15" viewBox="0 0 16 15" fill="none" xmlns="http://www.w3.org/2000/svg">
<g clip-path="url(#clip0_15_962)">
<path d="M15.3095 4.06466C15.1459 3.44878 14.664 2.96372 14.0521 2.79911C12.943 2.5 8.49558 2.5 8.49558 2.5C8.49558 2.5 4.04818 2.5 2.93904 2.79911C2.32714 2.96375 1.84522 3.44878 1.68165 4.06466C1.38446 5.18099 1.38446 7.5101 1.38446 7.5101C1.38446 7.5101 1.38446 9.83922 1.68165 10.9555C1.84522 11.5714 2.32714 12.0363 2.93904 12.2009C4.04818 12.5 8.49558 12.5 8.49558 12.5C8.49558 12.5 12.943 12.5 14.0521 12.2009C14.664 12.0363 15.1459 11.5714 15.3095 10.9555C15.6067 9.83922 15.6067 7.5101 15.6067 7.5101C15.6067 7.5101 15.6067 5.18099 15.3095 4.06466ZM7.04102 9.62477V5.39544L10.7582 7.51016L7.04102 9.62477Z" fill="#333333"/>
</g>
<defs>
<clipPath id="clip0_15_962">
<rect width="15" height="15" fill="white" transform="translate(0.995605)"/>
</clipPath>
</defs>
</svg>
