<svg width="20" height="20" viewBox="0 0 20 20" fill="none" xmlns="http://www.w3.org/2000/svg">
<path d="M17.3242 16.4141L13.1523 12.2031C13.9688 11.1797 14.4609 9.88281 14.4609 8.47266C14.4609 5.17188 11.7852 2.49609 8.48047 2.49609C5.17578 2.49609 2.5 5.17578 2.5 8.47656C2.5 11.7773 5.17578 14.4531 8.48047 14.4531C9.91016 14.4531 11.2188 13.9531 12.25 13.1172L16.3945 17.3008C16.5195 17.4336 16.6914 17.5 16.8594 17.5C17.0195 17.5 17.1797 17.4414 17.3008 17.3242C17.5586 17.0781 17.5664 16.6719 17.3242 16.4141ZM8.48047 13.168C7.22656 13.168 6.04688 12.6797 5.16016 11.793C4.27344 10.9062 3.78516 9.72656 3.78516 8.47656C3.78516 7.22266 4.27344 6.04297 5.16016 5.16016C6.04688 4.27344 7.22656 3.78516 8.48047 3.78516C9.73438 3.78516 10.9141 4.27344 11.8008 5.16016C12.6875 6.04688 13.1758 7.22656 13.1758 8.47656C13.1758 9.73047 12.6875 10.9102 11.8008 11.793C10.9141 12.6797 9.73438 13.168 8.48047 13.168Z" fill="#333333"/>
</svg>
