<svg width="107" height="108" viewBox="0 0 107 108" fill="none" xmlns="http://www.w3.org/2000/svg">
<g clip-path="url(#clip0_8_3607)">
<path d="M38.5622 91.9982C34.1231 90.4943 29.2766 93.072 28.36 97.3822C28.1901 98.2695 28.2239 99.184 28.4589 100.056C28.6775 100.977 28.4918 101.377 27.3745 101.383C25.7752 101.417 24.186 101.12 22.7067 100.508C21.2274 99.897 19.8898 98.9853 18.7779 97.8304C15.5009 94.5398 13.4881 90.4371 11.8167 86.2111C10.6904 83.3626 11.604 80.4962 12.7722 77.768C13.3203 76.4927 13.9973 75.2745 14.6473 73.9661C13.7097 73.6021 12.7692 74.0052 11.8616 73.8398C12.4966 73.4608 13.2035 73.6172 13.8685 73.6413C14.9618 73.6804 15.6417 73.2382 15.9652 72.2035C16.1824 72.0071 16.3773 71.7872 16.5463 71.5478C17.2203 70.3447 17.8014 70.1762 18.8378 71.3342C20.1707 72.8201 22.1027 72.9164 23.876 71.9148C27.9646 69.6017 28.4439 64.8824 24.9004 61.8144C24.8892 61.8018 24.8809 61.7869 24.8761 61.7707C24.8714 61.7545 24.8702 61.7374 24.8728 61.7208C24.8754 61.7041 24.8816 61.6882 24.891 61.6742C24.9005 61.6602 24.9129 61.6485 24.9273 61.6399C25.4605 61.4053 25.7331 60.915 26.0596 60.4819C26.3814 60.3854 26.6606 60.1811 26.8507 59.9031C27.0409 59.6252 27.1306 59.2902 27.1049 58.9539C28.7164 58.4426 29.8008 57.2785 30.7233 55.9461L31.8136 55.2813C33.6827 54.4662 33.7426 54.4632 33.8475 56.3672C33.9673 58.59 34.7191 60.4669 36.9267 61.1587C39.1343 61.8505 40.9495 60.6804 42.4591 59.0863C43.1097 58.3327 43.6082 57.4592 43.9268 56.5145C44.6149 57.5787 45.4684 58.5251 46.4549 59.3179C47.054 59.8262 47.1139 60.9662 48.2342 60.8218C49.1328 62.6596 50.894 63.6823 52.221 65.114C53.0088 66.4465 54.2698 67.2917 55.429 68.2422C55.4939 68.3822 55.5883 68.5063 55.7057 68.6061C55.8231 68.7058 55.9607 68.7787 56.109 68.8197C56.5587 69.9751 57.3772 70.9483 58.4363 71.5869C58.4363 71.8185 58.4573 72.0441 58.6999 72.1644C59.2421 73.1359 59.5806 74.2458 60.563 74.9136L60.2635 75.2144C59.8172 75.2144 59.5716 74.9136 59.323 74.5917C57.9122 72.6727 55.9622 72.4562 54.171 74.0413C53.1922 74.9541 52.4023 76.0519 51.8466 77.2717C49.6779 77.9636 47.4434 78.4989 45.3616 79.3953C43.5105 80.1894 41.4138 80.8601 40.599 83.0799C40.0745 84.3744 39.7269 85.7343 39.5656 87.1225C39.1882 87.694 39.1642 88.3677 39.0294 89.0114C38.8707 90.007 38.7179 91.0026 38.5622 91.9982ZM22.9414 77.2056C22.1297 76.8085 21.267 77.001 20.4253 76.992L20.1048 76.9649C18.7509 76.6642 18.0889 77.6086 17.5078 78.538C16.0491 80.8781 16.3726 83.3326 17.2832 85.7569C18.2177 88.2293 20.3474 89.6912 22.4981 89.4836C24.9962 89.24 26.8833 87.3089 27.3296 84.5447C28.4019 80.5804 26.7575 77.8372 22.9414 77.2056ZM40.9824 65.5712C38.3525 65.5501 36.103 66.4314 34.3597 68.4557C32.4756 70.6454 32.0653 73.6683 33.3263 75.843C34.6472 78.12 38.0739 79.651 40.6829 79.1276C43.6243 78.526 46.0326 75.6475 46.5328 72.1042C47.1049 68.0527 45.0202 65.5983 40.9824 65.5712Z" fill="#DD9300"/>
<path d="M98.694 88.4008C98.7958 88.9783 98.0949 89.0806 98.02 89.5498C96.4744 90.6777 94.7251 91.2944 92.88 91.7155C92.0533 91.8298 91.2026 91.8508 90.4477 92.2779C88.5217 92.2268 89.5491 93.6435 89.3634 94.4646L88.6895 94.0856C88.4079 92.4494 88.3121 92.4915 85.7331 92.5306C84.1905 92.5546 84.7146 93.6194 84.5349 94.3684L84.2204 95.3309C83.0175 96.6992 82.0213 98.2376 81.264 99.8968C80.7877 100.91 79.6765 101.377 78.7 101.876C76.7081 102.893 74.5664 103.59 72.6284 104.733C72.1911 104.992 71.7058 105.139 71.2655 104.688C71.583 103.06 71.8995 101.435 72.215 99.8126C72.5571 99.3774 72.7531 98.8446 72.7752 98.2906L72.8201 97.6891C73.2484 97.3642 73.1017 96.901 73.1017 96.4859C73.7229 95.1891 74.1962 93.8259 74.5125 92.4223C74.8049 91.0029 75.295 89.6318 75.9682 88.3497C76.9177 86.5991 78.3136 85.3839 80.2755 84.9628C80.9046 84.8275 81.9589 85.2456 81.9649 84.3252C81.9709 83.4048 80.7847 84.1988 80.1078 83.5251C82.6658 83.6304 82.1386 81.9129 82.0518 80.5172C81.9919 79.5848 81.5156 78.6193 81.6684 77.744C81.8661 76.622 81.3269 76.1047 80.6619 75.473C80.0419 74.8865 79.2541 74.7722 78.5143 74.5105L78.8288 74.2097C79.3711 74.1755 79.9119 74.2987 80.3864 74.5647C81.231 75.0219 81.4916 74.7091 81.5336 73.8097C81.6144 72.0591 80.3923 72.4652 79.4159 72.4291L79.1163 72.1283C80 71.8787 81.1112 72.0802 81.5126 70.9011L81.8391 70.2995C82.2105 68.8889 82.3303 67.4842 81.7642 66.0885C81.6815 66.0961 81.5983 66.0961 81.5156 66.0885C81.1921 66.0555 80.8387 66.1307 80.599 65.8148L80.8986 65.484C82.5131 65.1471 82.534 63.7635 82.6688 62.5724C82.7707 61.6399 82.6478 60.6985 81.1711 61.1857C80.5421 61.3963 79.7903 61.2489 79.0954 61.264C79.6405 60.2563 80.617 60.145 81.5965 60.0608C82.6808 59.9616 83.6123 59.6487 83.9299 58.4396L86.5987 60.0458C86.5358 60.7195 87.036 60.4729 87.3625 60.518C87.701 61.0173 88.0634 61.4925 88.6895 61.655C87.677 62.1753 86.6916 61.7723 85.6941 61.5738C85.0951 61.6249 84.4241 61.3181 83.8969 61.8746C83.4738 62.4939 83.2511 63.2291 83.2589 63.9801C83.2589 64.6147 83.5075 64.9305 84.1575 64.8433C85.8259 64.6147 87.5632 64.5937 89.1388 64.0763C90.4298 63.6522 91.1606 64.0763 91.9604 64.8553C90.1871 64.9004 89.3095 65.8208 89.3095 67.5925L88.968 67.8722C88.977 67.2779 89.027 66.6849 89.1178 66.0976C89.2316 65.5862 89.0729 65.2524 88.6266 65.1952C86.8833 65.0178 85.119 65.0148 83.5644 65.9352C82.528 66.5367 82.7856 67.7399 82.6658 68.7565C82.6119 69.1987 82.4531 69.6288 82.4172 70.071C82.3603 70.7447 82.6688 71.3643 83.3158 71.4004C84.59 71.4722 85.868 71.4309 87.1349 71.2771C87.8568 71.1869 88.2012 70.5342 88.4798 69.8273C88.7374 69.1746 88.3929 68.3986 88.962 67.8512C88.962 68.1941 88.9231 68.555 89.2616 68.7986C88.7554 70.6545 88.7554 70.6545 90.7862 71.4546C90.4537 71.4816 90.0883 71.4064 89.8666 71.7553C89.4173 71.993 88.8872 72.1193 88.6685 72.6577L88.0694 72.3569C87.9766 72.3569 87.8807 72.3299 87.7879 72.3088C86.6466 71.0305 85.3527 72.2396 84.1335 72.1193C83.4027 72.0441 82.4591 72.1193 82.3872 73.2683C82.3214 74.3211 82.3873 75.2805 83.6483 75.6595C84.454 75.9032 85.2238 76.2611 86.0236 76.5408C87.698 77.1153 87.9616 76.9138 88.0395 75.0369C88.0575 74.9437 88.0754 74.8504 88.0904 74.7572C88.6356 75.4009 88.2492 76.1769 88.3899 76.8807C89.3784 78.0207 90.6964 78.4659 91.4632 77.756C92.788 76.54 94.043 75.2496 95.2223 73.8909C96.1209 72.8592 95.7945 72.2817 94.4196 72.0561C93.6019 71.9208 92.7212 72.3028 91.9514 71.7553C92.0688 71.7623 92.1859 71.7382 92.291 71.6854C92.3961 71.6326 92.4856 71.553 92.5505 71.4546L94.6622 71.4185L96.1149 71.3884C96.8698 71.0515 96.5403 69.9446 97.3461 69.6438L97.6456 69.9687C96.7739 71.4064 98.2447 71.6561 98.8437 72.3419C97.1214 72.0892 96.4474 73.3615 95.5908 74.4895C94.782 75.5603 93.8385 76.5288 92.9279 77.5154C92.2809 78.2162 92.212 78.7967 93.1526 79.269C93.1526 79.4554 93.1526 79.6419 93.1526 79.8284C91.8406 79.0674 90.7563 79.5758 89.6749 80.3819C88.2731 81.4316 88.2222 82.328 89.5761 83.4379L89.5581 83.7386L89.2586 84.0394C88.6835 84.1116 88.36 84.3071 88.5157 85.0079C88.6362 85.6884 88.7172 86.3754 88.7584 87.0653C88.8302 87.6669 88.9051 88.2685 88.977 88.87C88.9411 89.5197 89.0759 90.0431 89.8756 90.0732C89.7588 90.4401 89.3425 90.9124 90.1752 90.9485C90.6934 90.9485 91.2475 91.1349 91.6729 90.6807C92.0143 90.6807 92.3588 90.6807 92.5954 90.38C94.806 90.2356 96.705 89.1859 98.694 88.4008ZM82.7617 78.4177C82.7257 79.7592 82.6329 81.1007 83.0073 82.4272C83.217 83.1731 83.6932 83.477 84.3282 83.1371C85.3501 82.6298 86.3092 82.0039 87.1858 81.2722C88.8362 79.7923 88.2911 77.8192 86.1524 77.2206L83.0193 76.3423C82.4292 76.971 82.7856 77.7169 82.7617 78.4177ZM86.3561 83.8589C84.3822 83.8409 83.7112 84.2921 83.6034 85.6065C83.4656 87.2578 83.84 88.864 84.0766 90.4822C84.0937 90.671 84.1522 90.8536 84.2481 91.0168C84.3439 91.1801 84.4746 91.32 84.6307 91.4265C84.7868 91.5329 84.9646 91.6032 85.151 91.6324C85.3375 91.6616 85.5281 91.6489 85.7091 91.5951C87.5572 91.168 88.8153 90.2386 88.2761 88.1963C88.0932 87.4205 88.0325 86.6207 88.0964 85.8261C88.1803 84.4064 87.7909 83.5551 86.3591 83.8589H86.3561ZM82.8575 89.1287C82.7796 87.9887 82.7497 87.1676 82.6628 86.3525C82.6603 86.2639 82.6398 86.1768 82.6025 86.0965C82.5652 86.0162 82.512 85.9444 82.4461 85.8855C82.3801 85.8266 82.3029 85.7819 82.2191 85.7541C82.1354 85.7263 82.0468 85.716 81.9589 85.7238C81.896 85.7191 81.8328 85.7301 81.7751 85.7557C81.7174 85.7814 81.6668 85.821 81.628 85.871C81.5892 85.921 81.5633 85.9798 81.5525 86.0423C81.5418 86.1048 81.5466 86.169 81.5665 86.2291C81.896 87.1195 81.9739 88.1301 82.8605 89.1287H82.8575ZM89.8876 78.9501C89.7978 78.3877 89.3215 78.3486 88.989 78.3486C88.33 78.3486 88.4409 78.9291 88.4409 79.3502C88.4409 79.6871 88.5008 80.1683 88.986 79.9969C89.2146 79.9172 89.4182 79.7786 89.5765 79.5948C89.7348 79.4111 89.8421 79.1887 89.8876 78.9501ZM87.3266 82.352C86.9941 82.4874 86.5178 82.6317 86.5328 83.1581C86.5328 83.483 86.9162 83.5401 87.2247 83.5401C87.719 83.5401 87.9197 83.1882 87.9886 82.7942C88.0574 82.4001 87.713 82.358 87.3236 82.352H87.3266Z" fill="#D2AA2B"/>
<path d="M72.838 97.7011L72.7931 98.3027C71.8765 98.5373 72.3498 99.2922 72.2329 99.8246C71.9154 101.449 71.5989 103.074 71.2834 104.7C70.5915 105.904 69.6599 106.279 68.3959 105.582L69.5191 101.665C69.9115 101.329 70.0972 100.938 69.8456 100.429C69.9864 99.8276 70.1182 99.2261 70.277 98.6245C70.6544 97.2048 71.2505 95.8392 71.3523 94.3473C72.1311 94.2902 71.9214 93.5262 72.221 93.1261C72.2809 92.2659 72.3048 91.3996 72.6852 90.5364C72.0564 90.4925 71.4321 90.6713 70.921 91.0417C68.986 92.2448 67.1858 93.6405 65.3676 95.0181C63.825 96.1851 62.8994 97.674 62.0967 99.3494C60.9195 101.813 59.6794 104.243 58.4663 106.689C57.385 106.43 56.6002 105.9 56.6182 104.643C57.0375 103.527 57.4658 102.414 57.8732 101.292C57.9661 101.037 58.2476 100.724 57.9152 100.489C57.6336 100.291 57.367 100.537 57.1034 100.682C55.9742 101.283 55.1954 102.426 53.9223 102.82C53.0477 102.694 52.0892 102.697 51.8406 101.542C51.9487 101.503 52.0411 101.43 52.1038 101.333C52.1666 101.236 52.1961 101.122 52.188 101.007C54.6263 100.122 56.2557 98.065 58.3645 96.6874C60.2186 95.4843 61.8481 93.9804 62.8575 91.8749C64.2054 89.0144 66.6975 86.933 68.2791 84.2289C69.5701 82.0211 71.0558 80.0179 73.0297 78.3756C73.5569 77.9365 74.138 77.4733 74.0511 76.6551C74.5693 76.21 74.2638 75.834 73.9493 75.452C73.7502 74.7516 73.6932 74.0183 73.7815 73.2953L74.0062 73.3284C74.147 74.0984 74.7371 73.8759 75.2223 73.8879L78.5441 74.4895C79.284 74.7512 80.0718 74.8654 80.6918 75.452C81.3568 76.0836 81.89 76.601 81.6983 77.7229C81.5455 78.5982 82.0218 79.5637 82.0817 80.4962C82.1685 81.9008 82.6957 83.6183 80.1377 83.504C80.8146 84.1778 82.0038 83.3657 81.9948 84.3041C81.9858 85.2426 80.9344 84.8064 80.3054 84.9418C78.3435 85.3629 76.9476 86.578 75.9981 88.3286C75.3248 89.6108 74.8348 90.9818 74.5424 92.4012C74.2221 93.8138 73.7427 95.1852 73.1136 96.4889C72.6493 96.8047 72.6133 97.2228 72.838 97.7011ZM75.9622 79.4223C72.7901 82.2768 70.3339 85.5554 67.9316 89.2039C72.6044 87.9556 76.1299 83.6183 75.9622 79.4223ZM77.6605 83.8198C78.2177 83.4348 79.0623 83.1521 79.0534 82.2136C79.0534 81.8347 78.6759 81.4406 78.4243 81.0857C78.3961 81.0445 78.357 81.0121 78.3114 80.9921C78.2658 80.9721 78.2155 80.9653 78.1663 80.9725C78.117 80.9797 78.0708 81.0006 78.0327 81.0328C77.9947 81.065 77.9664 81.1073 77.9511 81.1549C77.6515 81.9309 77.3849 82.719 77.1513 83.513C77.0794 83.7567 77.34 83.8018 77.6605 83.8198Z" fill="#E3AE08"/>
<path d="M48.2312 60.8338C47.1109 60.9662 47.033 59.8262 46.4519 59.3299C45.4654 58.5372 44.6119 57.5907 43.9238 56.5266L43.3937 55.7927C43.2948 55.6032 43.196 55.4137 43.0941 55.2242C43.3398 53.6992 43.5914 52.1712 43.831 50.6462C44.0167 49.4702 43.4745 48.9679 42.3333 49.0431C40.9435 49.1333 39.5536 49.2596 38.1638 49.3077C37.0944 49.3468 36.4445 48.8957 36.6002 47.6835C36.756 46.4714 36.3246 45.178 37.1454 44.0741C37.7864 44.5433 38.5292 44.4711 39.2421 44.4711C42.2375 44.4711 45.2088 44.4711 48.1922 44.4711C48.7164 44.4711 49.2945 44.2846 49.7528 44.7358C49.5072 44.7569 49.2586 44.793 49.01 44.793C45.6192 44.793 42.2285 44.7929 38.8258 44.7719C38.1129 44.7719 37.6576 44.8471 37.8493 45.7344C37.9021 46.1332 37.9141 46.5363 37.8852 46.9376C37.8852 48.0805 38.3555 48.4415 39.5716 48.3362C42.8994 48.0354 46.2363 47.8189 49.5731 47.7527C57.9002 47.5843 66.2302 47.5181 74.5573 47.4098C76.0819 47.3887 76.4414 46.8714 76.3785 45.0546C76.3276 43.6169 75.2942 44.0861 74.5333 44.0229C74.2845 44.0284 74.0368 44.0576 73.7935 44.1102C66.6885 44.8351 59.5626 44.7779 52.4366 44.7388C52.8979 44.2876 53.476 44.4801 54.0062 44.4741C55.9682 44.4531 57.9301 44.4741 60.2964 44.4741C59.5794 44.0575 58.7612 43.8492 57.9331 43.8726C55.7914 43.8906 53.6468 43.8966 51.5051 43.8726C51.1546 43.8726 50.3249 44.2666 50.6544 43.2409C57.2442 43.0665 63.81 42.8589 70.3878 42.7506C71.4451 42.7326 71.6758 42.1491 71.8345 41.4212C72.0961 39.9934 72.2265 38.5446 72.2239 37.0929C72.4725 28.9957 72.7901 20.9016 73.9103 12.8676C74.0781 11.6644 73.6647 11.2554 72.4396 11.3246C68.956 11.5201 65.4694 11.6253 61.9798 11.7517C61.2261 11.6348 60.4585 11.6399 59.7064 11.7667L57.5198 11.9773C57.6336 11.2915 58.02 11.1591 58.7179 11.0599C60.2395 10.8403 61.7132 11.8299 63.2109 11.105H68.2491V10.8042H65.3107V10.5034C67.8804 10.1818 70.4719 10.0701 73.0596 10.1695C74.3446 10.1966 74.9647 10.6237 74.9946 12.1277C75.1144 18.8412 74.5993 25.5186 74.147 32.2021C73.9433 35.1919 74.0331 38.1997 73.47 41.1655C73.2483 42.3416 73.5958 43.0364 75.0665 42.9161C77.6425 42.7055 77.7623 42.916 77.6275 45.5239C77.4598 48.5678 77.4598 48.5648 74.4315 48.3813C73.7875 48.3452 73.1405 48.3001 72.4935 48.3031C71.8465 48.3061 71.2954 48.5016 71.2564 49.2867C71.0348 49.2656 71.0138 48.628 70.6124 49.0972C70.3428 49.413 69.9834 49.5785 69.5701 49.2957C69.5701 49.0461 69.9265 48.7693 69.5311 48.5528C69.1896 48.3663 68.8961 48.5528 68.6085 48.7182C68.0394 48.7784 67.7099 49.1543 67.4763 49.6206C67.4605 49.7154 67.4344 49.8082 67.3984 49.8973C66.997 50.6914 67.1618 51.7592 66.2422 52.3036C66.2422 51.702 66.2422 51.1004 66.2842 50.4989C66.368 49.3619 66.1374 48.5077 64.7625 48.4505C62.9653 48.3723 62.51 48.7001 62.2614 50.2041C61.9619 52.0088 62.2374 53.8947 61.4796 55.6182C61.4197 56.0754 61.2729 56.671 60.8805 56.7371C59.1193 57.0379 58.5112 58.7103 57.2592 59.5976L56.9147 59.7841C56.085 59.36 56.1898 58.5238 56.1119 57.811C55.9592 56.4213 55.9352 55.0137 55.7765 53.624C55.6177 52.2344 55.0785 50.8177 57.2172 50.3485C56.5852 50.3214 55.9202 50.8478 55.7375 50.0086C55.4829 48.8445 54.6772 48.9047 53.8085 48.9227C52.7616 48.9739 51.7127 48.9679 50.6664 48.9047C49.5252 48.8054 49.1388 49.1543 49.0759 50.3725C48.9171 53.8616 48.7883 57.3688 48.2312 60.8338ZM46.41 50.177C47.1019 49.6055 46.6856 49.2446 46.1464 48.9739C46.0588 48.9243 45.9613 48.8946 45.861 48.887C45.7607 48.8795 45.66 48.8941 45.5659 48.93C45.4719 48.9659 45.3869 49.0221 45.3169 49.0947C45.2469 49.1672 45.1936 49.2543 45.1609 49.3499C44.9782 49.9063 45.125 50.3394 45.8708 50.159C45.2927 50.4958 45.0651 50.9621 45.3017 51.8764C45.775 51.1937 46.3022 50.8327 46.41 50.177ZM59.3439 49.5153C59.2307 49.5746 59.1429 49.6732 59.0966 49.7927C59.0503 49.9122 59.0488 50.0445 59.0923 50.165C58.8522 50.3268 58.6239 50.5057 58.4094 50.7004C58.1338 51.0012 57.4059 51.0403 57.6875 51.6268C57.9691 52.2133 58.3405 52.9533 58.9665 52.8901C59.5925 52.8269 60.5151 53.1638 60.8236 52.3216C61.075 51.5203 61.2347 50.6928 61.2999 49.8552C61.4017 49.004 60.6589 48.9318 60.1257 48.8656C59.8981 48.8385 58.9276 48.5107 59.3349 49.5153H59.3439ZM76.1179 43.3763C75.3271 43.1951 74.504 43.2127 73.7216 43.4274C74.5153 43.6102 75.3416 43.5926 76.1269 43.3763H76.1179ZM58.1458 54.7008C58.0979 54.5865 58.2057 54.2978 57.9121 54.3519C57.7803 54.376 57.6426 54.5986 57.5916 54.755C57.5407 54.9114 57.5916 55.158 57.8432 55.155C58.0949 55.152 58.1188 54.9384 58.1368 54.7008H58.1458ZM59.8681 53.4977C59.8172 53.5699 59.6824 53.6752 59.6914 53.7684C59.6896 53.8272 59.7012 53.8857 59.7253 53.9393C59.7493 53.993 59.7852 54.0404 59.8302 54.0781C59.8753 54.1158 59.9282 54.1427 59.9851 54.1568C60.042 54.1709 60.1014 54.1718 60.1587 54.1594C60.2605 54.1414 60.4282 53.9759 60.4163 53.9038C60.3803 53.6601 60.2036 53.5127 59.8711 53.5067L59.8681 53.4977ZM46.6646 57.6876C46.7705 57.4967 46.8558 57.2951 46.9192 57.0861C46.9192 57.0349 46.7365 56.9567 46.6406 56.8875C46.5658 56.9965 46.5101 57.1176 46.4759 57.2455C46.4699 57.3417 46.5568 57.45 46.6676 57.6967L46.6646 57.6876Z" fill="#333333"/>
<path d="M74.0391 76.6732C74.126 77.5004 73.5449 77.9546 73.0177 78.3937C71.0438 80.03 69.5581 82.0392 68.2671 84.247C66.6855 86.9541 64.1934 89.0325 62.8455 91.893C61.848 93.9985 60.2186 95.5024 58.3525 96.7055C56.2557 98.0831 54.6143 100.14 52.176 101.025L50.3159 101.076C48.2941 100.55 46.4699 99.4306 44.3851 99.0847L44.0676 98.6155C44.1096 98.041 44.4241 97.5958 44.7296 97.1356C46.1194 95.0572 48.2671 93.8601 50.1212 92.3231C53.6408 89.3874 57.346 86.6713 60.6349 83.4379C61.8003 82.2321 63.0849 81.1487 64.469 80.2044C66.702 78.8208 68.7205 77.1152 70.4597 75.1422L73.9043 76.4175C73.9597 76.4968 74.0049 76.5827 74.0391 76.6732Z" fill="#D2AA2B"/>
<path d="M49.7648 44.7268C49.3065 44.2756 48.7284 44.4651 48.2042 44.4621C45.2089 44.4441 42.2375 44.4621 39.2541 44.4621C38.5292 44.4621 37.7864 44.5343 37.1573 44.0651C37.7924 43.0935 38.7329 43.3823 39.5866 43.5387C40.5181 43.7071 40.8057 43.4214 40.8207 42.4679C40.9435 33.1044 42.3004 23.8192 42.3183 14.4347C42.3183 12.1938 43.1271 11.3908 45.3347 11.096C47.511 10.8111 49.7073 10.7104 51.9005 10.7952C53.3982 10.8493 53.7366 10.1455 53.5869 8.87619C53.5479 8.53028 53.497 8.18137 53.479 7.83246C53.4131 6.62932 53.8714 5.9736 55.1834 5.92247C56.8758 5.8563 58.5621 5.65176 60.2485 5.48633C61.4287 5.37203 62.2434 5.62469 62.0667 7.0805C62.041 7.43021 62.0663 7.78181 62.1416 8.12422C62.522 10.35 62.528 10.35 65.3646 10.4944V10.7952L62.9833 10.8945C63.0264 10.9582 63.0756 11.0176 63.1301 11.0719C63.163 11.096 63.2229 11.09 63.2678 11.099C61.7702 11.8239 60.2725 10.8343 58.7748 11.0539C58.0829 11.1531 57.6965 11.2855 57.5767 11.9713L57.3041 12.5488C57.0046 12.7262 56.6212 11.6464 56.3516 12.5969L55.7525 12.3172C55.3841 12.1728 55.1534 12.4525 54.8689 12.5939C54.7814 12.5819 54.6927 12.5819 54.6053 12.5939C54.0242 11.8179 53.3382 11.7697 52.5744 12.3111L52.0892 12.6932C51.9639 12.6384 51.8274 12.6142 51.691 12.6226C51.5546 12.6309 51.4221 12.6716 51.3044 12.7413L50.948 12.633C50.5556 12.6841 50.256 12.0886 49.8157 12.4706L49.4024 12.8977H49.2676C48.8452 12.3623 48.33 12.0344 47.6201 12.2119C47.3206 12.2841 46.8503 12.1187 46.8054 12.618C46.7724 13.021 47.1888 12.9879 47.4374 13.0902C48.1263 13.391 48.1144 13.7098 47.5333 14.1189C47.2816 14.2963 46.8084 14.4197 47.1948 14.8648C47.4164 15.1295 47.713 15.3912 48.0934 15.2468C48.3944 15.0922 48.6768 14.9035 48.9351 14.6844L49.4203 15.2408V15.701C49.3376 15.7723 49.2717 15.8613 49.2274 15.9613C49.1832 16.0614 49.1617 16.1702 49.1646 16.2796C49.1675 16.3891 49.1946 16.4966 49.244 16.5942C49.2934 16.6918 49.3639 16.7771 49.4503 16.844C49.7858 17.0936 50.1392 16.8259 50.3639 16.4891C50.4144 16.387 50.5011 16.3076 50.607 16.2665C50.7128 16.2253 50.8301 16.2253 50.936 16.2665C51.0708 16.9854 51.535 16.4379 51.8346 16.4921C51.9616 16.6862 52.0275 16.9142 52.0237 17.1465C52.02 17.3788 51.9468 17.6045 51.8136 17.7945L51.2415 17.9749C50.7413 17.244 50.1123 17.4365 49.4712 17.7343L45.3047 17.0124C45.131 16.3206 44.8374 16.1311 44.1904 16.6154C43.7531 16.9463 43.3517 17.247 43.6962 17.8035C44.2024 18.6156 44.451 17.25 44.9363 17.611C45.8139 17.6651 46.3381 18.0291 46.5178 18.9916C46.7125 20.0203 46.8653 20.0443 47.7519 19.8127L48.6236 19.4368C49.0429 19.8518 49.4802 20.2519 49.8756 20.691C50.1752 21.0249 50.9539 21.1873 50.5945 21.7889C50.3279 22.2341 49.6779 21.9212 49.2017 21.9694C48.6445 22.0235 48.0485 21.2024 47.4045 22.1679C47.9466 22.0416 48.2072 22.3845 48.5427 22.577L48.2432 22.8086C47.5542 22.6973 47.0091 22.4597 46.9162 21.6325C46.8473 21.055 46.5508 20.6459 45.8618 20.7903C45.3436 19.4819 44.481 20.7903 43.804 20.5527C43.7411 20.5316 43.6363 21.1001 43.7891 21.3708C43.9778 21.6987 44.2324 21.5423 44.3642 21.3317C44.7476 20.7151 45.4305 21.2896 45.8618 20.9166C46.5418 21.7588 45.5174 21.6385 45.2628 21.9634C44.6996 21.9634 44.0646 21.7739 43.6902 22.3965C43.6677 22.4845 43.6687 22.577 43.6928 22.6646C43.717 22.7522 43.7636 22.8319 43.828 22.8958C44.49 23.2928 44.8584 22.6191 45.3616 22.4145C45.4395 22.3814 45.4844 22.2702 45.5443 22.195C45.8439 22.1529 46.2932 22.0325 46.2692 22.4175C46.1374 24.3696 47.5572 24.4358 48.8572 24.6734C48.995 24.9291 49.2166 25.1998 48.7703 25.3743C48.2761 25.5638 48.2312 25.8766 48.4708 26.3037C48.8572 26.9534 49.0699 26.3608 49.3694 26.1984C49.5873 26.0921 49.8137 26.0046 50.0464 25.9367C50.0359 25.9954 50.0359 26.0555 50.0464 26.1142C49.8157 26.5744 50.3938 26.8571 50.304 27.2873C49.7934 27.6405 49.3053 28.0252 48.8422 28.4393C47.5273 29.489 47.2187 29.9131 47.9137 31.4471C47.5063 31.805 47.1738 31.0621 46.7365 31.3328C46.9821 31.9163 47.4524 32.0336 47.9556 32.0998C48.2282 32.2953 48.4918 32.5059 48.7763 32.6773C50.1811 33.5286 50.1931 33.7271 48.8662 34.5452L48.5517 34.2174L48.354 33.6489L47.6141 32.8909C47.1317 32.5325 46.5338 32.3674 45.9367 32.4277L45.5683 32.4126C45.2418 31.9585 46.38 30.9087 44.9692 30.9087L44.9872 30.9388C44.9754 30.3865 44.7622 29.8579 44.3881 29.4529C44.3519 29.2141 44.2927 28.9794 44.2114 28.7521C44.0826 28.4784 44.2114 27.9821 43.6962 28.0182C43.6059 28.0464 43.5229 28.0945 43.4535 28.159C43.384 28.2236 43.3298 28.3029 43.2948 28.3911C43.1301 28.8002 43.4356 29.0198 43.7322 29.1912C43.946 29.2941 44.1685 29.3776 44.3971 29.4409C44.2174 30.0154 43.5434 29.7988 43.2289 30.1628C43.3787 30.632 43.849 30.9598 43.7681 31.5103C43.6034 31.6035 43.3458 31.6697 43.3008 31.8111C43.2229 32.0427 43.4446 32.154 43.6573 32.1119C44.0916 32.0397 44.5199 31.9344 44.9483 31.8411C45.137 32.1149 45.4036 32.3555 45.3197 32.7435L45.2778 33.315L44.9093 33.6639C44.3342 33.8594 43.804 32.4938 43.3158 33.4955C42.9174 34.3166 42.7167 35.3423 43.7771 36.001C44.1964 36.2025 44.7656 36.1153 45.0082 36.6507C45.2089 37.0297 45.3946 37.4237 45.8678 37.535C46.3741 38.1366 45.76 38.3802 45.4904 38.7381C45.2448 38.6419 44.8734 38.29 44.7805 38.7381C44.6697 39.2525 45.143 39.3397 45.5743 39.2826C46.2932 39.5834 46.2512 39.5593 46.0565 40.0225C45.787 40.6722 45.5863 41.352 45.3556 42.0197C45.2287 42.2913 45.0003 42.5017 44.72 42.6053C44.4396 42.7089 44.1299 42.6973 43.858 42.5732C43.766 42.5352 43.6661 42.5208 43.5673 42.5313C43.4684 42.5418 43.3737 42.5768 43.2917 42.6332C43.2097 42.6896 43.1429 42.7656 43.0975 42.8544C43.052 42.9431 43.0292 43.0419 43.0312 43.1417C43.0312 43.5718 43.4985 43.5537 43.837 43.5778C44.6457 43.6349 45.3916 43.3733 46.1464 43.1507C47.5153 43.3101 48.8872 43.6981 50.1632 42.7145C50.4927 42.4619 50.5915 42.9612 50.6784 43.2289C50.3489 44.2546 51.1786 43.8545 51.5291 43.8605C53.6707 43.8936 55.8154 43.8876 57.9571 43.8605C58.7852 43.8372 59.6034 44.0455 60.3204 44.4621C57.9511 44.4621 55.9891 44.4621 54.0302 44.4621C53.5 44.4621 52.9219 44.2756 52.4606 44.7268H49.7648ZM44.6727 24.6042C44.7596 24.132 44.5259 23.9155 44.1036 24.0358C43.6812 24.1561 44.0826 24.4178 44.0766 24.6193C43.7411 25.266 44.0077 25.5216 44.6577 25.4976C44.8584 25.8375 44.475 26.3578 44.9153 26.5864C45.3556 26.815 45.2148 26.0089 45.6282 26.0871C46.4789 26.794 47.0061 26.0029 47.6081 25.6299C47.6651 25.5938 47.6081 25.1667 47.5273 25.1336C47.2382 24.9961 46.9115 24.9602 46.5996 25.0317C46.2878 25.1032 46.009 25.2778 45.8079 25.5277L44.9573 25.1757L44.6727 24.6042ZM45.3377 12.4224C44.7715 12.1517 44.2683 12.0013 43.9418 12.5157C43.6752 12.9338 43.9808 13.3248 44.2893 13.7369C44.6577 13.2857 44.9782 12.8766 45.3377 12.4224ZM43.16 37.6373C43.7771 38.0463 44.2683 38.299 44.8135 37.7757C44.8516 37.7423 44.8821 37.7012 44.9031 37.655C44.924 37.6088 44.9348 37.5587 44.9348 37.5079C44.9348 37.4572 44.924 37.4071 44.9031 37.3609C44.8821 37.3147 44.8516 37.2736 44.8135 37.2402C44.1964 36.8522 43.7591 37.2673 43.16 37.6373ZM48.333 11.502C48.1267 11.3996 47.8986 11.3491 47.6685 11.3549C47.4384 11.3606 47.2131 11.4225 47.0121 11.5351C47.218 11.637 47.4456 11.6873 47.6751 11.6815C47.9046 11.6757 48.1294 11.6142 48.33 11.502H48.333Z" fill="#333333"/>
<path d="M73.9193 76.3995L70.4747 75.1242C69.7558 74.3391 68.8542 74.9617 68.0544 74.8234C67.5212 74.4173 66.7305 74.5226 66.2872 73.921C66.2572 73.2292 66.2262 72.5374 66.1943 71.8456L66.1673 70.2936C66.1913 69.4544 66.2692 68.6122 66.2272 67.773C66.1614 66.4194 66.5657 65.0208 65.9008 63.7154C66.0697 63.5083 66.1884 63.2647 66.2477 63.0037C66.307 62.7428 66.3051 62.4716 66.2422 62.2115L66.1973 60.8218V59.1825C66.4519 57.077 66.2931 54.9715 66.1434 52.8661L66.2632 52.2855C67.1828 51.7411 67.018 50.6733 67.4194 49.8793C67.5242 50.2913 67.4733 51.0343 67.9526 50.941C68.258 50.8839 68.5313 50.7145 68.7191 50.4659C68.9069 50.2173 68.9956 49.9073 68.968 49.5965L69.591 49.2777C70.0044 49.5604 70.3638 49.395 70.6334 49.0792C71.0348 48.6099 71.0558 49.2476 71.2774 49.2687L71.6458 51.1035C71.5414 51.4907 71.5614 51.9012 71.7028 52.2765C71.6322 52.6902 71.7074 53.1156 71.9154 53.4796C72.0053 54.3339 71.6368 55.2844 72.4636 55.9822C72.3467 56.08 72.2652 56.2137 72.2316 56.3627C72.198 56.5116 72.2143 56.6676 72.2779 56.8063C72.0974 57.9374 72.2821 59.0969 72.805 60.115L72.5055 60.4338C72.1341 61.1166 71.9663 61.7903 72.5894 62.428L72.8889 63.186L72.9189 64.5756C72.6882 65.6675 73.0866 66.6811 73.2903 67.7218C73.2463 67.8628 73.2334 68.0117 73.2525 68.1582C73.2717 68.3047 73.3224 68.4452 73.4011 68.57C73.4011 69.8845 73.3592 71.2049 73.7006 72.4802L73.7456 73.3345C73.6572 74.0574 73.7142 74.7908 73.9133 75.4911L73.9193 76.3995ZM68.6625 53.239C68.7074 53.5939 68.5367 54.2587 69.0788 54.1414C69.7498 53.985 69.8516 53.1729 70.0553 52.5683C70.1422 52.3156 70.0403 51.9908 69.7378 52.0208C69.0549 52.087 68.7194 52.5502 68.6625 53.239ZM68.0454 69.2709C68.8811 68.8317 68.971 68.3505 69.3184 67.5865C68.5127 68.0647 68.3659 68.5219 68.0454 69.2679V69.2709ZM71.7836 68.0437C71.2834 68.5791 70.9659 68.8407 71.2594 69.3431C71.7537 69.1476 71.6698 68.7445 71.7836 68.0407V68.0437ZM69.9205 65.9231C70.4627 65.4689 70.7652 65.2012 70.5376 64.6809C70.0194 64.8493 70.0583 65.2704 69.9205 65.9201V65.9231ZM69.0219 55.6423C69.0009 55.3806 68.8512 55.3415 68.7433 55.4167C68.6232 55.5447 68.5222 55.6896 68.4438 55.8468C68.5427 55.91 68.7074 56.0423 68.7284 56.0243C68.8426 55.9086 68.945 55.7816 69.0339 55.6453L69.0219 55.6423Z" fill="#333333"/>
<path d="M38.5622 91.9982C38.7179 91.0026 38.8617 90.007 39.0265 89.0114C39.7843 88.5482 39.5417 87.8083 39.5626 87.1225C39.723 85.7344 40.0696 84.3746 40.593 83.0799C41.4078 80.8601 43.5045 80.1894 45.3556 79.3953C47.4374 78.4929 49.672 77.9636 51.8406 77.2718L53.0567 77.1183L55.7136 76.9469C54.9558 78.4508 54.3627 80.1232 52.898 81.0917C51.9993 81.6933 51.4003 82.4753 50.7353 83.2634C48.0395 86.4547 46.5658 90.5033 43.6213 93.5232C43.5084 93.6882 43.4215 93.8698 43.3637 94.0616C42.7838 95.2499 42.0183 96.3374 41.0963 97.283C40.6739 97.5116 40.3145 97.283 39.943 97.1206C38.8614 95.8881 38.2968 94.2831 38.3675 92.6419L38.5622 91.9982Z" fill="#D2AA2B"/>
<path d="M41.0963 97.2829C42.0183 96.3374 42.7838 95.2499 43.3638 94.0615C43.4215 93.8698 43.5084 93.6882 43.6214 93.5231C46.5658 90.5153 48.0306 86.4547 50.7354 83.2634C51.4033 82.4753 51.9964 81.6872 52.898 81.0917C54.3627 80.1231 54.9558 78.4568 55.7136 76.9469C56.8099 76.7544 57.7744 76.231 58.7449 75.7227C59.2362 75.6655 59.6945 75.3738 60.2156 75.5121C59.6705 76.8356 58.5233 77.6898 57.6576 78.7606C54.7791 82.3249 51.6669 85.7087 49.3395 89.9799C51.0019 89.264 52.0923 88.112 53.2724 87.0923C56.0611 84.6861 58.8707 82.2978 61.6025 79.8284C63.6333 77.9906 65.9128 76.4927 68.0545 74.8083C68.8542 74.9617 69.7558 74.3391 70.4747 75.1091C68.7355 77.082 66.7171 78.7876 64.484 80.1713C63.1 81.1156 61.8153 82.199 60.65 83.4047C57.3551 86.6382 53.6558 89.3543 50.1363 92.2899C48.2762 93.842 46.1285 95.0391 44.7447 97.1025C44.4451 97.5627 44.1246 98.0048 44.0827 98.5823C43.1391 98.5583 42.2555 98.3658 41.5187 97.7221L41.0963 97.2829Z" fill="#E3AE08"/>
<path d="M69.5192 101.665L68.3959 105.576C66.2243 108.244 60.9075 108.851 58.4663 106.71C59.6645 104.264 60.9195 101.834 62.0967 99.3704C62.8994 97.695 63.825 96.2061 65.3676 95.0391C67.1858 93.6615 68.986 92.2689 70.921 91.0627C71.4322 90.6923 72.0564 90.5135 72.6853 90.5574C72.3048 91.4207 72.2809 92.2869 72.221 93.1472C71.4781 93.2284 71.6548 93.9713 71.3523 94.3684C71.2505 95.8723 70.6544 97.2258 70.277 98.6455C70.1182 99.2471 69.9774 99.8487 69.8457 100.45C69.3664 100.763 69.5671 101.244 69.5192 101.665Z" fill="#D2AA2B"/>
<path d="M89.9026 90.1755C89.1088 90.1424 88.974 89.619 89.004 88.9723C89.3484 88.3226 89.6809 87.6729 88.7853 87.1676C88.7441 86.4777 88.6631 85.7907 88.5427 85.1102C88.381 84.4094 88.7104 84.2079 89.2855 84.1417C90.1842 84.0274 91.1307 84.4425 91.9814 83.871C93.2813 83.7627 94.6143 84.0635 95.8753 83.5341C95.9023 82.8423 95.6926 82.7882 94.6562 83.2333L89.609 83.5341C88.2551 82.4242 88.3061 81.5279 89.7079 80.4781C90.7862 79.672 91.8735 79.1637 93.1855 79.9247C94.144 80.3428 95.0906 80.803 96.1629 80.8661C97.1034 81.6452 98.7389 81.3264 99.299 82.7882C98.652 83.1461 97.8013 82.6979 97.3071 83.5431C98.1638 83.5221 98.9546 83.7146 99.7034 83.3176C99.8112 84.2861 100.003 85.2787 99.0324 85.9705C98.6427 86.0489 98.2643 86.1763 97.9062 86.3495C96.6451 87.1496 94.9647 87.2518 94.0781 88.6806C92.7885 88.7196 91.5387 89.138 90.4837 89.8837L89.9026 90.1755Z" fill="#E3AE08"/>
<path d="M81.9528 56.2949C81.7012 54.9204 82.3842 53.8887 83.2079 52.9262C84.3281 51.6208 85.739 50.6793 87.2276 49.8551C90.9417 47.8014 94.9842 46.414 99.1731 45.7554C101.11 45.4557 103.091 45.8372 104.78 46.8353C106.67 47.897 107.383 49.5423 106.817 51.6478C105.919 54.9896 103.657 57.3808 101.126 59.5194C98.6819 61.5707 96.1688 63.5379 93.6886 65.5351C93.1794 65.4509 93.2962 64.9997 93.1914 64.6839C93.6826 64.2628 94.1619 63.8266 94.6711 63.4296C97.3669 61.303 100.123 59.2186 102.441 56.6469C103.615 55.3445 104.7 53.9759 105.302 52.2945C106.14 49.9634 105.302 48.2369 102.989 47.4639C101.843 47.104 100.638 46.9742 99.4427 47.0819C92.8529 47.5361 87.4403 50.3905 83.0012 55.2332C82.6717 55.5911 82.498 56.1175 81.9588 56.2619L81.9528 56.2949Z" fill="#333333"/>
<path d="M81.9529 56.295L81.9349 56.274C82.3363 57.2575 83.6782 57.3718 83.9508 58.4727C83.6333 59.6758 82.7017 59.9947 81.6174 60.0939C80.6379 60.1842 79.6615 60.2954 79.1163 61.2971C78.5502 61.0715 78.2746 60.3676 77.5797 60.3496C77.3842 60.1699 77.1288 60.0703 76.8638 60.0703C76.5988 60.0703 76.3434 60.1699 76.1479 60.3496L72.8141 60.0909C72.2912 59.0728 72.1064 57.9134 72.2869 56.7823C73.7846 56.0514 75.2313 55.2784 76.4085 54.0752C76.8818 53.7925 77.6066 54.6527 77.9391 53.7173C79.3559 54.4572 80.3833 55.8017 81.9529 56.295Z" fill="#E3AE08"/>
<path d="M93.1975 79.3592C92.257 78.8869 92.3258 78.3064 92.9728 77.6056C93.8714 76.619 94.827 75.6505 95.6357 74.5797C96.4834 73.4518 97.1663 72.1734 98.8887 72.4321C99.293 72.7509 99.1882 72.1103 99.4428 72.1313C101.447 75.1692 101.324 78.4027 100.32 81.7203L98.9156 81.1579C98.4424 80.8902 98.017 80.3608 97.388 80.836L96.7889 80.5653L93.1975 79.3592Z" fill="#E3AE08"/>
<path d="M24.9244 61.6399C24.9099 61.6485 24.8975 61.6602 24.8881 61.6742C24.8787 61.6882 24.8725 61.7041 24.8699 61.7208C24.8673 61.7374 24.8685 61.7545 24.8732 61.7707C24.878 61.7869 24.8862 61.8018 24.8974 61.8144C24.7656 61.9528 24.6309 62.0881 24.4961 62.2265C24.4853 62.2139 24.4715 62.2043 24.456 62.1987C24.4405 62.193 24.4239 62.1915 24.4076 62.1942C24.3913 62.1969 24.376 62.2039 24.3632 62.2142C24.3504 62.2246 24.3404 62.2381 24.3343 62.2535C23.3279 62.2986 22.7288 61.5467 21.9979 61.0504C21.1353 60.4729 20.3205 59.9224 19.2183 59.7209C15.978 59.1537 12.6612 59.1934 9.43543 59.8382L7.53638 59.2367C10.1333 58.1959 12.8951 58.3012 15.6059 58.0516C16.2289 57.9944 16.8549 57.9824 17.7415 57.9373C16.3158 56.8725 15.0457 56.0273 13.9045 55.0497C11.4124 52.9442 9.26469 50.556 8.39304 47.2714L8.42899 46.5616C8.97414 46.0322 8.63267 45.3584 8.72852 44.7568C8.72852 44.429 8.6776 44.0801 9.01009 43.8545C9.32759 44.7208 8.86331 45.6592 9.15087 46.4924C10.1945 49.6311 12.2335 52.34 14.9559 54.2045C17.1155 55.7085 19.3291 57.1342 21.4797 58.6501C22.7228 59.5284 24.0827 60.2894 24.9244 61.6399Z" fill="#333333"/>
<path d="M90.8252 71.5147C88.7943 70.7147 88.7943 70.7147 89.3005 68.8588C89.6929 68.4648 89.7468 68.0617 89.3395 67.6557C89.3395 65.884 90.2171 64.9486 91.9904 64.9185C92.7422 65.1291 93.0926 66.0134 93.9283 66.0916C95.1624 67.2315 96.8788 67.9113 97.385 69.7491C96.5792 70.0499 96.9087 71.1568 96.1539 71.4937C96.0567 71.3995 95.942 71.3255 95.8163 71.276C95.6905 71.2266 95.5563 71.2025 95.4213 71.2053C95.2863 71.2081 95.1531 71.2377 95.0296 71.2923C94.906 71.347 94.7944 71.4256 94.7012 71.5238L92.5894 71.5599L90.8252 71.5147Z" fill="#E3AE08"/>
<path d="M38.3675 92.6419C38.2912 94.2874 38.8539 95.8984 39.937 97.1356C39.6375 98.038 39.5566 98.9855 38.9695 99.7645C38.744 100.096 38.4186 100.345 38.0411 100.477C37.6637 100.609 37.2542 100.615 36.8728 100.495C36.109 100.234 36.6152 99.4547 36.735 98.9343C37.0345 97.5928 35.8813 97.1507 35.2373 96.4137C34.9018 96.0227 34.3387 95.8362 33.8684 95.5565C33.6675 95.3674 33.4024 95.2622 33.1271 95.2622C32.8517 95.2622 32.5867 95.3674 32.3857 95.5565C31.7357 95.5565 31.6069 96.0287 31.4871 96.519V96.4799C31.1127 96.5671 30.7053 96.6093 30.6245 97.1056L30.5106 97.4063C29.9865 97.8094 29.7408 97.1898 29.3514 97.0905C29.4054 96.3837 29.8906 95.8633 30.1452 95.2437C31.0708 95.2647 31.4512 94.7474 31.4781 93.8811C33.5749 92.305 35.9712 92.4825 38.3675 92.6419Z" fill="#DD9403"/>
<path d="M15.9623 72.2035C15.6418 73.2382 14.9618 73.6804 13.8655 73.6413C13.2006 73.6172 12.4937 73.4608 11.8586 73.8398C9.48931 73.9872 7.08105 74.3572 4.77762 73.5871C1.42882 72.4682 -0.838663 70.2785 0.284595 66.0164C0.351461 66.1461 0.453049 66.2545 0.577932 66.3294C0.702816 66.4044 0.846042 66.4428 0.991498 66.4405C0.817768 66.8856 1.29103 67.1022 1.33596 67.5143C1.6954 70.7417 3.13317 72.1253 6.35917 72.4502C8.34509 72.6487 10.316 72.4742 12.293 72.2667C13.5061 72.1373 14.7342 71.7403 15.9623 72.2035Z" fill="#333333"/>
<path d="M31.8107 55.2813L30.7174 55.9461C30.0554 55.7896 30.2471 55.2873 30.2741 54.8512V53.0164L30.331 51.6689C30.8162 51.0884 30.5197 50.4116 30.5676 49.7739L30.6305 48.9618C31.0948 48.4655 30.8252 47.864 30.8672 47.3075L30.9391 46.2548C31.3914 45.7494 31.1218 45.1449 31.1727 44.5854L31.2176 43.5507C31.6698 41.4702 31.6749 39.3168 31.2326 37.2342C31.1787 36.8191 30.7563 36.4973 30.9331 36.0311C31.0732 35.9623 31.1983 35.8663 31.3011 35.7485C31.404 35.6308 31.4825 35.4937 31.5321 35.3453C32.9849 37.935 32.919 40.7323 32.6524 43.5597C32.1282 44.3508 32.4847 45.2291 32.4188 46.0653L32.3559 47.1661C31.8556 47.7677 32.1821 48.4806 32.1102 49.1393C32.0923 49.5844 32.0713 50.0416 32.0533 50.4778C31.5232 51.2839 31.8916 52.1742 31.8167 53.0224L31.8107 55.2813Z" fill="#333333"/>
<path d="M43.0942 55.2122C43.1961 55.4017 43.2949 55.5912 43.3937 55.7807C43.0433 55.9732 43.0193 56.3431 42.9055 56.665C42.6411 57.4208 42.2097 58.1068 41.6438 58.6714C41.0779 59.2361 40.392 59.6648 39.6376 59.9255C37.2053 60.8609 35.498 59.8713 34.9379 57.1462C36.8699 57.2335 38.9606 58.2742 40.5392 56.295C40.9436 55.916 40.8207 55.4528 40.7369 54.9986C40.644 54.6978 40.5482 54.4211 40.4373 54.1324L40.8327 53.7413L43.0942 55.2122Z" fill="#DD9403"/>
<path d="M92.883 91.7155C94.7221 91.2944 96.4774 90.6777 98.023 89.5498C98.7299 89.607 98.682 90.016 98.4423 90.4883C97.6126 92.1215 96.4894 93.2465 94.5274 93.5803C93.2993 93.7879 92.2 94.6361 90.8371 94.5549C90.3489 94.5278 89.8487 94.6331 89.3664 94.4646C89.5402 93.6435 88.5247 92.2268 90.4507 92.2779C91.3014 92.2749 92.194 92.4404 92.883 91.7155Z" fill="#E3AE08"/>
<path d="M93.9282 66.0765C93.0925 65.9983 92.7301 65.114 91.9903 64.9035C91.1905 64.1365 90.4596 63.7003 89.1686 64.1244C87.5931 64.6418 85.8558 64.6628 84.1874 64.8914C83.5404 64.9787 83.3067 64.6628 83.2888 64.0282C83.2809 63.2772 83.5037 62.542 83.9268 61.9227C84.5259 61.8114 85.1908 62.1483 85.724 61.6219C86.7184 61.8204 87.7039 62.2235 88.7193 61.7031L93.1764 64.711C93.2812 65.0117 93.1764 65.4779 93.6736 65.5622C93.7515 65.7246 93.8384 65.8991 93.9282 66.0765Z" fill="#E3AE08"/>
<path d="M18.0171 29.7236C22.9354 27.3865 28.8303 29.6364 30.927 34.1602L30.5796 34.9061C29.2976 33.8473 28.4019 32.3916 26.9252 31.5163C24.0437 29.8078 21.0813 30.0875 18.059 30.9297C17.5857 30.8696 17.5198 30.6289 17.9871 30.5177C18.9756 30.265 18.3795 30.0063 18.0171 29.7236Z" fill="#333333"/>
<path d="M88.938 11.4298C88.8422 11.8539 88.4768 12.0525 88.1473 12.254C87.048 12.9247 85.7869 12.9909 84.5528 13.0992C82.8754 13.2466 81.1681 13.0992 79.5356 13.6406C79.444 13.6794 79.3455 13.6993 79.246 13.6991C79.1466 13.6988 79.0482 13.6784 78.9567 13.6391C78.8653 13.5998 78.7827 13.5424 78.7139 13.4703C78.645 13.3982 78.5914 13.3129 78.5561 13.2195C78.3974 12.8796 78.7029 12.648 78.9665 12.5337C81.9085 11.1654 85.1674 10.6318 88.3899 10.9907C88.5178 10.9886 88.6425 11.0313 88.7425 11.1114C88.8425 11.1916 88.9116 11.3041 88.938 11.4298Z" fill="#333333"/>
<path d="M18.017 29.7236C18.3795 30.0064 18.9755 30.265 17.9721 30.5177C17.5048 30.638 17.5707 30.8696 18.044 30.9298C13.5659 32.915 10.322 36.0161 9.05793 40.9219C9.06783 40.6323 9.01993 40.3437 8.91704 40.073C8.81416 39.8023 8.65837 39.5551 8.45886 39.3457C10.1542 34.6355 13.3712 31.4652 18.017 29.7236Z" fill="#333333"/>
<path d="M77.9391 53.7263C77.6186 54.6617 76.8817 53.8015 76.4085 54.0842C74.797 54.0842 73.8684 55.519 72.4726 55.9701C71.6458 55.2783 72.0143 54.3218 71.9244 53.4706C72.2615 53.3116 72.5577 53.077 72.7903 52.785C73.023 52.493 73.1858 52.1513 73.2663 51.7862C72.5684 51.5546 72.197 52.087 71.7117 52.2675C71.5704 51.8922 71.5504 51.4817 71.6548 51.0944C74.132 51.0493 76.1089 52.2284 77.9391 53.7263Z" fill="#E3AE08"/>
<path d="M0.997431 66.4405C0.851975 66.4429 0.708749 66.4044 0.583865 66.3295C0.458981 66.2546 0.357394 66.1461 0.290527 66.0164C1.36286 62.3077 4.12159 60.4188 7.53629 59.2367L9.43534 59.8383C9.26581 59.9332 9.08961 60.0157 8.90816 60.0849C5.69414 61.0805 3.04325 62.7649 1.66839 66.0194C1.52461 66.3503 1.35388 66.5127 0.997431 66.4405Z" fill="#333333"/>
<path d="M82.8875 2.84241C82.8196 3.01062 82.7322 3.17015 82.6269 3.31765C81.255 4.97197 79.952 6.69246 78.2536 8.03998C77.9391 8.28662 77.5258 8.61147 77.1783 8.34076C76.8308 8.07006 76.8788 7.50157 77.1453 7.10754C78.3435 5.37201 79.6255 3.70566 81.3568 2.46943C81.92 2.06337 82.561 1.8047 82.8875 2.84241Z" fill="#333333"/>
<path d="M89.9026 90.1755L90.5017 89.8747C91.8586 89.9439 92.9998 89.3513 94.0961 88.6715C95.8933 88.2925 97.391 87.1135 99.1163 86.566C99.2991 87.2518 99.2421 87.8835 98.697 88.4038C96.7081 89.1889 94.803 90.2266 92.6404 90.4823C92.1192 90.5454 91.5381 90.2868 91.0978 90.783C90.7743 90.7981 90.4268 90.7319 90.1992 91.0658C89.3695 91.0147 89.7858 90.5364 89.9026 90.1755Z" fill="#E3AE08"/>
<path d="M72.2479 5.34796C72.4876 3.89516 72.7392 2.36717 72.9998 0.836175C73.0806 0.342887 73.3352 -0.0661811 73.8684 0.00901523C73.9954 0.0222787 74.118 0.0625433 74.2283 0.127125C74.3385 0.191706 74.4338 0.279119 74.5077 0.383556C74.5817 0.487993 74.6327 0.60706 74.6572 0.732817C74.6818 0.858574 74.6794 0.988144 74.6502 1.1129C74.4555 2.64991 74.2668 4.18692 74.0002 5.7119C73.8894 6.34054 73.5928 7.21583 72.8919 7.08348C72.191 6.95114 72.2988 6.06382 72.2479 5.34796Z" fill="#333333"/>
<path d="M53.9224 102.835C55.1954 102.441 55.9742 101.308 57.1034 100.697C57.367 100.553 57.6336 100.306 57.9152 100.504C58.2477 100.739 57.9661 101.052 57.8732 101.307C57.4659 102.429 57.0375 103.542 56.6182 104.658C55.2343 105.061 54.4525 104.532 53.9224 102.835Z" fill="#D3AB2E"/>
<path d="M84.5529 94.3684C84.7236 93.6194 84.1994 92.5637 85.751 92.5306C88.33 92.4915 88.4258 92.4494 88.7074 94.0856C87.9765 93.9713 87.671 94.588 87.2097 94.9609L86.3471 95.0301C85.739 94.8406 84.9303 95.1925 84.5529 94.3684Z" fill="#E3AE08"/>
<path d="M37.4689 55.6212L38.3675 56.6348C37.2023 56.8424 36.2498 56.698 35.4531 55.94C35.2133 55.7129 35.0569 55.4112 35.009 55.0837C34.9612 54.7562 35.0248 54.422 35.1895 54.1353C35.7077 53.0675 36.6871 52.7307 37.7954 52.7607C38.1908 52.7607 38.5862 52.8389 38.9936 52.8811L37.7505 53.645C36.9298 54.2105 36.78 54.8602 37.4689 55.6212Z" fill="#DF990F"/>
<path d="M32.9998 98.2816C31.4422 98.802 32.4966 99.9961 32.3708 100.989C31.0109 100.086 30.8402 98.805 30.9061 97.4274C31.3404 97.2619 31.4572 96.895 31.5051 96.4829V96.522C31.8766 96.3957 32.242 96.2453 32.6224 96.149C33.1885 96.0047 33.7786 96.0889 34.1201 96.5551C34.5245 97.1176 33.7397 97.2078 33.5779 97.5597C33.527 97.677 33.5959 97.8605 33.6109 97.9959L32.9998 98.2816Z" fill="#DF990F"/>
<path d="M32.9998 98.2816L33.5989 97.9808C34.129 97.6289 34.7401 97.3792 35.1864 97.9808C35.7076 98.6606 35.5608 99.4847 35.2493 100.24C35.0277 100.769 34.5334 100.904 34.0003 100.733C33.2454 100.492 32.9309 99.8878 32.853 99.1599C32.861 98.8617 32.9104 98.5661 32.9998 98.2816Z" fill="#DE9608"/>
<path d="M8.47683 39.3457C8.67634 39.555 8.83213 39.8023 8.93501 40.073C9.0379 40.3436 9.0858 40.6323 9.0759 40.9218L9.013 43.8545C8.68052 44.0801 8.74342 44.429 8.73144 44.7568C8.18928 45.2832 8.53075 45.96 8.4319 46.5615L8.39596 47.2714C7.42891 44.7134 7.45778 41.8833 8.47683 39.3457ZM8.34804 43.659C8.40794 43.271 8.52476 42.9611 8.11739 42.3957C8.19228 42.9792 8.00956 43.289 8.34804 43.659Z" fill="#333333"/>
<path d="M29.3815 97.0845C29.7709 97.1837 30.0165 97.8033 30.5407 97.4003C30.3772 97.8128 30.3056 98.2562 30.3309 98.6995C30.3563 99.1427 30.478 99.575 30.6875 99.966C30.987 100.601 30.7354 101.142 30.2382 101.332C29.6091 101.569 29.4444 100.901 29.3126 100.444C28.9831 99.3253 28.8723 98.1944 29.3815 97.0845Z" fill="#DE970A"/>
<path d="M41.5157 97.7553C42.2525 98.3989 43.1362 98.5914 44.0797 98.6155L44.3972 99.0847C43.5405 99.3163 42.6928 99.584 41.8242 99.7585C41.3359 99.8577 40.5841 100.116 40.5092 99.3253C40.4643 98.6817 40.3355 97.7192 41.5157 97.7553Z" fill="#DF980D"/>
<path d="M96.7769 80.5714L97.376 80.8421C97.8412 81.1016 98.3737 81.2138 98.9036 81.1639L100.308 81.7264C100.455 82.3851 100.503 83.0077 99.7093 83.3085C98.9545 83.7085 98.1637 83.516 97.313 83.5371C97.8133 82.6919 98.658 83.14 99.305 82.7821C98.7448 81.3203 97.1094 81.6391 96.1688 80.8601C96.2866 80.8706 96.405 80.8494 96.5119 80.7986C96.6188 80.7479 96.7102 80.6694 96.7769 80.5714Z" fill="#D5AF38"/>
<path d="M40.1917 55.8889C39.2332 56.3221 38.4754 55.9491 37.7955 55.2874L37.7595 53.9248C38.5443 53.7323 39.2842 53.7444 39.8862 54.388L40.4224 55.3716C40.3445 55.537 40.2696 55.7145 40.1917 55.8889Z" fill="#DF980D"/>
<path d="M99.1133 86.563C97.3759 87.1164 95.9022 88.2955 94.093 88.6685C94.9916 87.2518 96.6601 87.1375 97.9211 86.3374C98.2792 86.1642 98.6576 86.0369 99.0474 85.9584C99.0683 86.163 99.0893 86.3615 99.1133 86.563Z" fill="#D4AD33"/>
<path d="M75.6088 19.16V11.4599H75.7226V19.16H75.6088Z" fill="#FDFCFA"/>
<path d="M99.4427 72.1374C99.1941 72.1103 99.293 72.7389 98.8886 72.4381C98.2895 71.7523 96.8188 71.5027 97.6904 70.0649C98.5102 70.5137 99.1347 71.2523 99.4427 72.1374Z" fill="#E3B00D"/>
<path d="M39.8862 54.376C39.2871 53.7323 38.5442 53.7203 37.7595 53.9128C37.7778 53.823 37.7651 53.7297 37.7235 53.6481C38.1369 53.3934 38.5512 53.1388 38.9666 52.8841C39.2991 52.8661 39.6375 52.8179 39.8862 53.1247C39.3859 53.6421 40.2905 53.6691 40.2037 54.0451L39.8862 54.376Z" fill="#FCF4E6"/>
<path d="M33.5181 38.5215V42.9401H33.3683V38.5005L33.5181 38.5215Z" fill="#FDFCFA"/>
<path d="M76.783 42.1851C74.0872 42.6153 73.8775 42.4859 74.2549 40.4346C73.8835 42.8619 75.8095 41.7249 76.783 42.1851Z" fill="#FDFCFA"/>
<path d="M87.2128 94.9609C87.6621 94.5879 87.9676 93.9713 88.7104 94.0856L89.3724 94.4586C88.7319 94.8715 87.9688 95.049 87.2128 94.9609Z" fill="#E3AE08"/>
<path d="M30.5796 34.9061L30.942 34.1602C31.136 34.2882 31.2933 34.4649 31.3984 34.6728C31.5035 34.8806 31.5526 35.1124 31.5411 35.3453C31.4915 35.4937 31.4129 35.6308 31.3101 35.7485C31.2073 35.8662 31.0821 35.9623 30.942 36.031L30.5796 34.9061Z" fill="#333333"/>
<path d="M37.7235 53.6481C37.7651 53.7296 37.7778 53.823 37.7594 53.9128L37.7954 55.2753L37.4689 55.6212C36.78 54.8602 36.9297 54.2105 37.7235 53.6481Z" fill="#FAEED6"/>
<path d="M31.4992 93.8751C31.4722 94.7414 31.0918 95.2588 30.1663 95.2377C30.4436 94.6447 30.9137 94.1641 31.4992 93.8751Z" fill="#DE970A"/>
<path d="M84.5528 94.3684C84.9302 95.1926 85.751 94.8406 86.35 95.0301C85.6851 95.4061 84.9302 95.1354 84.2533 95.3309C84.3432 95.0121 84.448 94.6902 84.5528 94.3684Z" fill="#EBC54D"/>
<path d="M32.4218 46.0653C32.4877 45.2291 32.1222 44.3508 32.6554 43.5598C32.6913 44.405 32.7213 45.2502 32.4218 46.0653Z" fill="#333333"/>
<path d="M31.8197 53.0224C31.8946 52.1742 31.5202 51.2839 32.0563 50.4778C32.0773 51.335 32.1042 52.1923 31.8197 53.0224Z" fill="#333333"/>
<path d="M50.328 101.064L52.1881 101.013C52.1962 101.128 52.1666 101.242 52.1039 101.339C52.0412 101.436 51.9487 101.509 51.8406 101.548C51.4333 101.091 50.7234 101.572 50.328 101.064Z" fill="#E8D494"/>
<path d="M40.2037 54.0451C40.2906 53.6691 39.386 53.642 39.8862 53.1247L40.8477 53.7263L40.4643 54.1413C40.3747 54.1173 40.2875 54.085 40.2037 54.0451Z" fill="#E1A01F"/>
<path d="M32.1132 49.1393C32.1851 48.4806 31.8586 47.7737 32.3588 47.1661C32.3768 47.8249 32.4427 48.5137 32.1132 49.1393Z" fill="#333333"/>
<path d="M32.3978 95.5505C32.5988 95.3614 32.8638 95.2562 33.1392 95.2562C33.4145 95.2562 33.6796 95.3614 33.8805 95.5505H32.3978Z" fill="#DE970A"/>
<path d="M40.1917 55.8889C40.2695 55.7145 40.3444 55.537 40.4223 55.3595L40.7368 54.9986C40.8207 55.4528 40.9435 55.901 40.5391 56.295L40.1917 55.8889Z" fill="#FCF4E6"/>
<path d="M26.0567 60.4819C23.3014 56.8141 21.2514 52.6625 20.012 48.2399C19.8479 47.5166 19.5106 46.8444 19.0294 46.2814C18.5482 45.7185 17.9375 45.282 17.2503 45.0095C16.2888 44.5824 15.2135 44.3388 14.4017 43.5958C14.5943 43.1604 14.9428 42.8136 15.3782 42.6243C16.0971 42.9943 16.7351 43.4545 17.5708 43.671C18.8528 44.0049 19.0086 43.4244 18.8498 42.4679C18.5503 40.591 18.1519 38.7291 17.8374 36.8552C17.7026 36.0281 17.4929 34.8309 18.3706 34.6234C19.0475 34.464 19.1703 35.7152 19.3231 36.401C20.1079 39.9142 20.8208 43.4424 21.5906 46.9646C21.7089 47.5383 21.9236 48.0876 22.2256 48.5889C22.8846 44.4049 22.7917 40.0526 25.838 36.4221C26.3232 37.6252 26.0057 38.5276 25.7601 39.4059C25.4606 40.4646 25.0562 41.4903 24.7087 42.531C22.9115 47.9452 23.0793 53.1247 26.6258 57.8711C26.8264 58.213 26.9862 58.5775 27.102 58.9569C27.127 59.2927 27.037 59.627 26.8468 59.9043C26.6567 60.1817 26.3779 60.3855 26.0567 60.4819Z" fill="#333333"/>
<path d="M52.218 65.126C52.6284 62.7919 54.5933 61.9708 56.3037 60.915C56.8848 61.5166 57.5018 61.4384 58.1548 61.0384C59.0534 60.8639 60.0149 61.282 60.8656 60.7195L65.3287 60.4428C65.3995 60.604 65.5284 60.7324 65.6895 60.8021C65.8506 60.8718 66.032 60.8778 66.1973 60.8188L66.2423 62.2084C64.6504 63.4288 63.3251 64.9645 62.3483 66.7202C61.1801 68.4888 59.7214 69.319 57.5737 68.4046C56.9327 68.1339 56.1659 67.9203 55.429 68.2602C54.2668 67.3037 53.0058 66.4736 52.218 65.126Z" fill="#E3AE08"/>
<path d="M68.0544 74.8083C65.9128 76.4927 63.6333 77.9906 61.6025 79.8284C58.8707 82.2979 56.061 84.6831 53.2724 87.0924C52.0922 88.112 51.0019 89.2641 49.3395 89.9799C51.6639 85.7088 54.779 82.3249 57.6576 78.7606C58.5232 77.6898 59.6704 76.8356 60.2156 75.5121L60.2515 75.2114L60.5511 74.9106C61.875 74.682 62.7377 73.6533 63.831 73.0247L64.1305 73.6262C63.7441 73.927 63.2469 74.1737 63.151 74.8294C64.2443 74.8504 65.2837 74.9828 65.9697 73.9511L66.2692 73.93C66.7305 74.5075 67.5213 74.4023 68.0544 74.8083Z" fill="#D2AA2B"/>
<path d="M40.9825 65.5712C45.0202 65.6103 47.105 68.0647 46.5329 72.1043C46.0327 75.6475 43.6244 78.5381 40.683 79.1276C38.074 79.651 34.6473 78.12 33.3264 75.843C32.0653 73.6684 32.4757 70.6455 34.3598 68.4557C36.1031 66.4194 38.3675 65.5381 40.9825 65.5712ZM38.083 74.5948L37.433 74.8745C35.3662 73.9721 34.3088 72.4231 34.5575 69.8995C33.8236 70.5011 33.5181 71.0666 33.572 71.8005C33.394 72.0927 33.2979 72.4277 33.2937 72.7702C33.2895 73.1127 33.3773 73.45 33.548 73.7465C34.1471 76.0355 36.3067 77.6568 39.0026 77.8643C41.6984 78.0718 43.906 76.8476 44.9483 74.4925C45.4648 73.2397 45.703 71.8889 45.6463 70.5342C45.6253 68.4076 44.7327 67.1293 42.6809 66.6089C40.7339 66.1126 38.8288 66.2359 37.1424 67.5113C36.6767 67.7097 36.3024 68.0769 36.0941 68.54L35.9533 68.8407C35.0727 70.0439 35.2314 71.247 35.9533 72.4712L36.0641 72.757C36.4565 73.6563 37.2203 74.1707 38.083 74.5767V74.5948Z" fill="#FDFCFA"/>
<path d="M27.3297 84.5207C26.8834 87.2849 24.9963 89.216 22.4982 89.4596C20.3475 89.6671 18.2178 88.2053 17.2833 85.7329C16.3847 83.3266 16.0492 80.8662 17.5079 78.514C18.089 77.5846 18.751 76.6491 20.1049 76.9409L19.4968 77.9034C18.2747 78.2042 18.113 79.29 17.7775 80.2465C16.8519 82.3972 17.7056 85.7359 19.5747 87.2458C22.1987 89.3784 24.6668 88.843 26.0657 85.778C26.512 84.7884 26.7366 83.6966 27.0631 82.6498C27.5424 83.2183 27.1649 83.9191 27.3297 84.5207Z" fill="#FBFAF7"/>
<path d="M63.828 73.0156C62.7347 73.6443 61.872 74.673 60.548 74.9016C59.5656 74.2338 59.2271 73.1239 58.6849 72.1524C59.1104 71.4629 59.6912 70.8834 60.3806 70.4608C61.07 70.0381 61.8486 69.784 62.6538 69.719H62.9234C63.2229 70.7116 64.1604 70.5101 64.8524 70.6936C65.8169 70.9522 66.1104 71.3222 65.3256 72.1133L63.828 73.0156Z" fill="#E3AE08"/>
<path d="M60.2515 75.1963L60.2156 75.4971C59.6944 75.3588 59.2361 75.6505 58.7449 75.7077C58.032 73.8067 55.9981 73.6834 54.5034 75.061C53.8979 75.6446 53.4071 76.3375 53.0567 77.1033L51.8406 77.2567C52.3938 76.0353 53.1817 74.9354 54.159 74.0203C55.9562 72.4351 57.9002 72.6517 59.311 74.5707C59.5596 74.9196 59.8052 75.1963 60.2515 75.1963Z" fill="#FAF9F5"/>
<path d="M62.6628 69.719C61.8577 69.784 61.079 70.0381 60.3896 70.4608C59.7002 70.8835 59.1194 71.4629 58.6939 72.1524C58.4513 72.032 58.4334 71.8065 58.4304 71.5749C59.8711 69.6559 59.7992 69.4874 57.388 69.0844C56.9596 69.0152 56.5343 68.9159 56.106 68.8317C55.9577 68.7907 55.8201 68.7178 55.7027 68.6181C55.5853 68.5184 55.4909 68.3942 55.426 68.2542C56.1629 67.9143 56.9237 68.1279 57.5707 68.3986C59.7184 69.3009 61.1651 68.4828 62.3453 66.7142L62.6448 66.9879C62.2195 67.9023 60.6769 68.8287 62.6628 69.719Z" fill="#D3AB2E"/>
<path d="M27.3296 84.5207C27.1648 83.9191 27.5422 83.2063 27.03 82.6438C27.0031 82.2498 27.0091 81.8467 26.9492 81.4557C26.6496 79.4825 25.131 78.0628 22.7048 77.7621C20.7578 77.5214 19.982 77.9636 19.2032 79.6329C19.1356 79.6396 19.0686 79.6506 19.0025 79.666L18.6401 79.639C18.5592 78.884 19.1013 78.4358 19.4758 77.8974L20.0988 76.9529L20.4193 76.98C21.222 77.4793 22.0937 77.1424 22.9354 77.1936C26.7575 77.8372 28.4019 80.5804 27.3296 84.5207Z" fill="#FCF4E6"/>
<path d="M56.106 68.8317C56.5343 68.9159 56.9596 69.0152 57.388 69.0844C59.7992 69.4874 59.8711 69.6559 58.4304 71.5749C57.3763 70.9419 56.5594 69.9778 56.106 68.8317Z" fill="#E3AE05"/>
<path d="M22.9414 77.2056C22.0997 77.1545 21.228 77.5064 20.4253 76.992C21.267 77.001 22.1297 76.8085 22.9414 77.2056Z" fill="#FBF3E3"/>
<path d="M39.5657 87.1225C39.5447 87.7963 39.7874 88.5482 39.0295 89.0114C39.1613 88.3677 39.1853 87.694 39.5657 87.1225Z" fill="#D7B442"/>
<path d="M73.3084 67.7008C73.1047 66.66 72.7093 65.6434 72.9369 64.5515C74.806 63.0957 77.0046 62.2716 79.1283 61.297C79.8233 61.297 80.5751 61.4294 81.2041 61.2188C82.6718 60.7315 82.7946 61.673 82.7018 62.6054C82.567 63.8086 82.546 65.1802 80.9315 65.517C80.4044 65.517 79.8442 65.3396 79.4009 65.8178L79.1014 66.1186C78.6251 65.8178 78.2567 65.9893 77.9512 66.3984L77.3251 66.6991C75.9712 67.036 74.7222 67.6978 73.3084 67.7008Z" fill="#E3AE08"/>
<path d="M73.7127 72.4712C73.3652 71.1809 73.4131 69.8604 73.4131 68.543C75.0905 68.4287 76.5792 67.5835 78.2057 67.2857L79.4038 66.7112C79.949 67.2045 80.2695 66.7292 80.6289 66.4104C80.9524 66.3954 81.2969 66.4375 81.5275 66.1096C81.6112 66.1171 81.6954 66.1171 81.7791 66.1096C81.7791 67.2105 81.7791 68.3114 81.7791 69.4183C81.2999 69.8484 81.5485 70.4078 81.5125 70.9222C81.0992 72.1013 79.9879 71.8997 79.1163 72.1494C78.5914 72.1018 78.0626 72.1759 77.5707 72.366C76.8308 71.999 76.1269 71.8997 75.5428 72.6517C74.9108 72.8562 74.3357 72.5164 73.7127 72.4712Z" fill="#E3AE08"/>
<path d="M89.0069 67.9113C88.4378 68.4587 88.7823 69.2347 88.5247 69.8874C88.2461 70.5943 87.9017 71.247 87.1798 71.3372C85.9129 71.4911 84.6349 71.5324 83.3607 71.4606C82.6987 71.4245 82.3902 70.8048 82.4621 70.1311C82.4981 69.6889 82.6568 69.2588 82.7107 68.8166C82.8305 67.812 82.5729 66.6089 83.6093 65.9953C85.1639 65.0749 86.9282 65.0929 88.6715 65.2554C89.1178 65.3005 89.2705 65.6343 89.1627 66.1577C89.0719 66.7451 89.0219 67.338 89.0129 67.9323L89.0069 67.9113Z" fill="#E3AE05"/>
<path d="M88.6895 72.7209C88.9231 72.1885 89.4533 72.0622 89.8876 71.8185H91.9604C92.7302 72.366 93.6108 71.984 94.4285 72.1193C95.8034 72.3449 96.1179 72.9224 95.2313 73.9541C94.052 75.3128 92.7969 76.6032 91.4721 77.8192C90.7053 78.5291 89.3754 78.0839 88.3989 76.9439C89.022 75.5814 88.5487 74.1316 88.6895 72.7209Z" fill="#E3AE05"/>
<path d="M86.3591 83.8589C87.7759 83.5582 88.1803 84.4064 88.0994 85.8261C88.0356 86.6207 88.0962 87.4205 88.2791 88.1963C88.8183 90.2386 87.5602 91.168 85.7121 91.5952C85.5311 91.6489 85.3405 91.6616 85.154 91.6324C84.9676 91.6033 84.7899 91.5329 84.6337 91.4265C84.4776 91.32 84.3469 91.1801 84.2511 91.0168C84.1553 90.8536 84.0967 90.671 84.0796 90.4822C83.843 88.864 83.4806 87.2578 83.6064 85.6065C83.7142 84.2921 84.3852 83.8409 86.3591 83.8589Z" fill="#E3AE05"/>
<path d="M83.0193 76.3423L86.1524 77.2206C88.2911 77.8222 88.8482 79.7924 87.1858 81.2722C86.3092 82.0039 85.3501 82.6298 84.3282 83.1371C83.6932 83.477 83.217 83.1732 83.0073 82.4272C82.6329 81.1008 82.7257 79.7593 82.7617 78.4178C83.2559 77.7771 82.9084 77.0311 83.0193 76.3423Z" fill="#E3AE05"/>
<path d="M86.6197 60.0789C89.639 57.3147 92.7332 54.6647 96.6002 53.1217C97.1992 52.8841 97.7983 52.6705 98.4243 52.478C98.7808 52.3667 99.2451 52.099 99.4577 52.6284C99.6285 53.0555 99.275 53.4526 98.9725 53.633C98.3435 54.009 97.6216 54.2346 96.9656 54.5595C94.8689 55.6363 93.0716 57.1252 91.1336 58.4486C89.9355 59.2608 88.8302 60.2022 87.3835 60.5541C87.057 60.506 86.5568 60.7587 86.6197 60.0789Z" fill="#333333"/>
<path d="M88.0723 75.1181C87.9975 76.983 87.7339 77.1845 86.0595 76.622C85.2597 76.3483 84.4899 75.9844 83.6842 75.7407C82.4261 75.3617 82.3572 74.4022 82.4231 73.3495C82.495 72.2035 83.4386 72.1253 84.1694 72.2005C85.3885 72.3208 86.6825 71.1116 87.8237 72.39C87.9136 73.2923 87.5362 74.2458 88.0723 75.1181Z" fill="#E3AE05"/>
<path d="M79.4337 72.4351C80.4102 72.4712 81.6323 72.0651 81.5515 73.8157C81.5095 74.7181 81.2519 75.0189 80.4042 74.5707C79.9297 74.3047 79.389 74.1815 78.8466 74.2158C78.4902 73.7465 77.6485 74.0022 77.4119 73.2021L79.4337 72.4351Z" fill="#E3AE05"/>
<path d="M79.4338 72.4351L77.4119 73.2021C77.6515 74.0022 78.4902 73.7465 78.8467 74.2158L78.5322 74.5166L75.2103 73.915C75.0674 73.7303 74.8822 73.5831 74.6705 73.4857C74.4588 73.3883 74.2268 73.3436 73.9942 73.3555L73.7695 73.3225L73.7246 72.4682C74.3237 72.5163 74.9227 72.8562 75.5548 72.6517L77.5826 72.366C78.0745 72.1759 78.6033 72.1018 79.1282 72.1494L79.4338 72.4351Z" fill="#D3AC30"/>
<path d="M89.6179 83.5281L94.6651 83.2273C95.0785 83.2965 95.5637 83.098 95.8842 83.5281C94.6232 84.0575 93.2902 83.7567 91.9903 83.865L89.594 83.8289L89.6179 83.5281Z" fill="#D4AD33"/>
<path d="M82.8605 89.1287C81.9619 88.1331 81.896 87.1195 81.5695 86.2292C81.5496 86.169 81.5448 86.1048 81.5555 86.0424C81.5662 85.9799 81.5922 85.921 81.631 85.8711C81.6698 85.8211 81.7203 85.7815 81.778 85.7558C81.8358 85.7301 81.8989 85.7191 81.9619 85.7239C82.0498 85.716 82.1383 85.7263 82.2221 85.7541C82.3058 85.7819 82.3831 85.8267 82.449 85.8855C82.5149 85.9444 82.5682 86.0162 82.6054 86.0965C82.6427 86.1768 82.6633 86.2639 82.6658 86.3525C82.7526 87.1676 82.7826 87.9888 82.8605 89.1287Z" fill="#E2AD03"/>
<path d="M89.8876 78.9501C89.8417 79.1915 89.7326 79.4163 89.5715 79.6013C89.4104 79.7864 89.2031 79.925 88.971 80.0029C88.4858 80.1743 88.4288 79.7021 88.4258 79.3562C88.4258 78.9351 88.315 78.3576 88.974 78.3546C89.3185 78.3516 89.7948 78.3877 89.8876 78.9501Z" fill="#E3AE05"/>
<path d="M96.7769 80.5713C96.7125 80.6702 96.6231 80.7502 96.5178 80.803C96.4126 80.8558 96.2953 80.8797 96.1778 80.8721C95.1055 80.809 94.159 80.3488 93.2004 79.9307C93.2004 79.7442 93.2004 79.5577 93.2004 79.3712L96.7769 80.5713Z" fill="#D4AD33"/>
<path d="M88.6895 72.7209C88.5457 74.1316 89.019 75.5813 88.4139 76.9619C88.2821 76.2581 88.6685 75.4821 88.1144 74.8384C88.1144 74.0353 88.1144 73.2292 88.0934 72.4321L88.6895 72.7209Z" fill="#D4AE36"/>
<path d="M79.4218 66.7112L78.2237 67.2857C78.1877 66.6691 77.7265 66.7232 77.3251 66.7022L77.9511 66.4014C78.3495 66.3743 78.8048 66.5698 79.1013 66.1216L79.4009 65.8209C79.7963 66.4224 80.2336 65.7457 80.6439 65.863C80.8836 66.1637 81.243 66.1036 81.5605 66.1367C81.3359 66.4555 80.9914 66.4134 80.6619 66.4375C80.2156 66.4284 79.7543 66.2931 79.4218 66.7112Z" fill="#D5AF38"/>
<path d="M87.3235 82.352C87.7129 82.352 88.0604 82.3731 87.9855 82.7942C87.9106 83.2153 87.7159 83.5371 87.2217 83.5401C86.9221 83.5401 86.5387 83.4829 86.5298 83.1581C86.5148 82.6317 86.991 82.4873 87.3235 82.352Z" fill="#E2AC00"/>
<path d="M81.8002 69.4212C81.8002 68.3204 81.8002 67.2195 81.8002 66.1126C82.3633 67.5083 82.2435 68.9129 81.8721 70.3236C81.8421 70.0258 81.8241 69.722 81.8002 69.4212Z" fill="#D5AF38"/>
<path d="M89.588 83.8439L91.9843 83.88C91.1306 84.4425 90.1871 84.0364 89.2885 84.1508L89.588 83.8439Z" fill="#E3B00D"/>
<path d="M91.9844 71.8366H89.9116C90.1333 71.4786 90.5107 71.5538 90.8312 71.5358L92.5955 71.5658C92.526 71.6606 92.4331 71.7355 92.3259 71.783C92.2187 71.8305 92.1009 71.8489 91.9844 71.8366Z" fill="#D1A724"/>
<path d="M92.8829 91.7155C92.197 92.4403 91.3044 92.2749 90.4507 92.2779C91.2025 91.8508 92.0532 91.8297 92.8829 91.7155Z" fill="#E7BB2E"/>
<path d="M88.1054 72.4261C88.1054 73.2292 88.1203 74.0353 88.1263 74.8324C88.1263 74.9256 88.0934 75.0188 88.0754 75.1121C87.5363 74.2398 87.9137 73.2863 87.8238 72.3719C87.9167 72.399 88.0125 72.4141 88.1054 72.4261Z" fill="#E4B212"/>
<path d="M88.7913 87.1766C89.6899 87.6699 89.3544 88.3196 89.0099 88.9813C88.938 88.3708 88.8631 87.7722 88.7913 87.1766Z" fill="#E4B314"/>
<path d="M80.623 65.8539C80.2126 65.7366 79.7753 66.4164 79.3799 65.8118C79.8232 65.3456 80.3833 65.511 80.9105 65.511L80.623 65.8539Z" fill="#EFD170"/>
<path d="M89.3395 67.6406C89.7468 68.0617 89.6929 68.4648 89.3005 68.8438C88.968 68.6001 89.016 68.2422 89.001 67.8963L89.3395 67.6406Z" fill="#E7BB2E"/>
<path d="M83.0193 76.3423C82.9084 77.0311 83.2559 77.7771 82.7616 78.4178C82.7856 77.7169 82.4292 76.971 83.0193 76.3423Z" fill="#E3B00D"/>
<path d="M72.2329 99.8126C72.3498 99.2802 71.8765 98.5253 72.7931 98.2906C72.771 98.8446 72.575 99.3774 72.2329 99.8126Z" fill="#E5B51C"/>
<path d="M85.718 61.6069C85.1938 62.1362 84.5199 61.7994 83.9208 61.9076C84.448 61.3602 85.113 61.661 85.718 61.6069Z" fill="#E4B212"/>
<path d="M90.2051 91.0507C90.4237 90.7169 90.7712 90.783 91.1037 90.768L91.7238 90.783C91.2774 91.2372 90.7233 91.0417 90.2051 91.0507Z" fill="#E6B824"/>
<path d="M91.7148 90.783L91.0947 90.768C91.5351 90.2837 92.1162 90.5424 92.6374 90.4672C92.4007 90.795 92.0562 90.78 91.7148 90.783Z" fill="#E7BA2B"/>
<path d="M81.8002 69.4213C81.8211 69.7221 81.8391 70.0228 81.8601 70.3236L81.5336 70.9252C81.5725 70.4109 81.3239 69.8514 81.8002 69.4213Z" fill="#E7BA2B"/>
<path d="M94.701 71.5087C94.7943 71.4106 94.9059 71.3319 95.0295 71.2773C95.1531 71.2226 95.2862 71.1931 95.4212 71.1903C95.5562 71.1875 95.6905 71.2115 95.8162 71.261C95.9419 71.3105 96.0567 71.3845 96.1538 71.4786L94.701 71.5087Z" fill="#EAC44A"/>
<path d="M72.838 97.7011C72.6134 97.2228 72.6493 96.7987 73.1196 96.4979C73.1136 96.913 73.2664 97.3762 72.838 97.7011Z" fill="#E8BD36"/>
<path d="M75.9622 79.4224C76.1299 83.6123 72.6044 87.9557 67.9316 89.2039C70.3339 85.5554 72.7901 82.2768 75.9622 79.4224Z" fill="#D2AA2B"/>
<path d="M77.6605 83.8198C77.34 83.8018 77.0794 83.7567 77.1513 83.5191C77.3849 82.725 77.6575 81.9369 77.9511 81.1609C77.9664 81.1134 77.9947 81.0711 78.0327 81.0388C78.0708 81.0066 78.117 80.9857 78.1663 80.9785C78.2155 80.9713 78.2658 80.9781 78.3114 80.9981C78.357 81.0181 78.3961 81.0505 78.4243 81.0917C78.676 81.4466 79.0504 81.8407 79.0534 82.2197C79.0624 83.1521 78.2057 83.4348 77.6605 83.8198Z" fill="#D3AB2E"/>
<path d="M73.9943 73.3555C74.2268 73.3436 74.4589 73.3882 74.6706 73.4856C74.8823 73.583 75.0675 73.7303 75.2104 73.915C74.7251 73.9029 74.135 74.1255 73.9943 73.3555Z" fill="#EAC242"/>
<path d="M71.3523 94.3624C71.6518 93.9653 71.4781 93.2224 72.2209 93.1412C71.9154 93.5442 72.1311 94.3052 71.3523 94.3624Z" fill="#E6B826"/>
<path d="M69.5192 101.665C69.5671 101.238 69.3664 100.745 69.8457 100.429C70.0973 100.944 69.9116 101.335 69.5192 101.665Z" fill="#E7B929"/>
<path d="M73.9193 76.3995L73.9373 75.4791C74.2518 75.852 74.5573 76.228 74.0391 76.6822C74.0118 76.5831 73.9715 76.488 73.9193 76.3995Z" fill="#E8BD33"/>
<path d="M66.1525 52.857C66.3022 54.9625 66.452 57.068 66.2064 59.1735L65.4246 59.8563C63.8949 59.7141 62.3531 59.7819 60.8417 60.0578C59.7244 59.369 58.4154 60.1601 57.2832 59.5916C58.5353 58.6892 59.1433 57.0199 60.9046 56.7311C61.303 56.6649 61.4497 56.0694 61.5037 55.6122C63.1721 54.8933 64.5799 53.7323 66.1525 52.857Z" fill="#E3AE08"/>
<path d="M59.3349 49.5153C58.9186 48.5106 59.8891 48.8385 60.1167 48.8656C60.6499 48.9317 61.3927 49.0039 61.2909 49.8551C61.2327 50.6971 61.079 51.5297 60.8326 52.3366C60.5331 53.1788 59.5835 52.8419 58.9755 52.9051C58.3674 52.9683 57.9601 52.1862 57.6965 51.6418C57.4329 51.0974 58.1428 51.0041 58.4183 50.7154C58.6329 50.5207 58.8612 50.3418 59.1013 50.18L60.56 49.7318L59.3349 49.5153Z" fill="#DE9505"/>
<path d="M68.9771 49.5874C69.0047 49.8982 68.9159 50.2082 68.7282 50.4568C68.5404 50.7054 68.2671 50.8748 67.9616 50.932C67.4824 51.0252 67.5333 50.2823 67.4285 49.8702C67.4649 49.7802 67.491 49.6864 67.5063 49.5905C67.9586 49.7017 68.2881 49.413 68.6476 49.2265L68.9771 49.5874Z" fill="#E09E1A"/>
<path d="M45.8709 50.171C45.125 50.3515 44.9723 49.9183 45.161 49.3619C45.1937 49.2664 45.2469 49.1793 45.3169 49.1067C45.3869 49.0341 45.472 48.9779 45.566 48.9421C45.66 48.9062 45.7608 48.8915 45.8611 48.8991C45.9614 48.9067 46.0588 48.9363 46.1465 48.9859C46.6856 49.2446 47.102 49.6055 46.41 50.1891L45.8709 50.171Z" fill="#DED3B8"/>
<path d="M63.2439 11.0689C63.199 11.0689 63.1391 11.0689 63.1061 11.0418C63.0516 10.9875 63.0025 10.9281 62.9594 10.8643L65.3406 10.7651H68.2791V11.0659L63.2439 11.0689Z" fill="#333333"/>
<path d="M57.2832 59.5916C58.4154 60.1601 59.7244 59.369 60.8417 60.0578C60.3295 60.127 59.8891 60.5541 59.323 60.3586C58.6311 59.8774 57.9421 59.9435 57.2532 60.3586H56.6721L56.9387 59.757L57.2832 59.5916Z" fill="#E7B929"/>
<path d="M45.8709 50.171H46.4101C46.3022 50.8327 45.775 51.1877 45.3018 51.8825C45.0652 50.9741 45.2928 50.5079 45.8709 50.171Z" fill="#EAE3D1"/>
<path d="M68.9771 49.5875L68.6476 49.2265V48.6912C68.9471 48.5257 69.2287 48.3392 69.5702 48.5257C69.9656 48.7423 69.5941 49.019 69.6091 49.2687L68.9771 49.5875Z" fill="#F5E1B8"/>
<path d="M62.0068 11.7306L61.5006 13.1954C61.5216 11.3667 60.3025 12.1818 59.7303 11.7457C60.4835 11.6188 61.252 11.6138 62.0068 11.7306Z" fill="#E2A326"/>
<path d="M76.1269 43.3763C75.3445 43.5911 74.5214 43.6087 73.7306 43.4274C74.513 43.2127 75.3361 43.1951 76.1269 43.3763Z" fill="#333333"/>
<path d="M58.1369 54.7008C58.1069 54.9384 58.077 55.152 57.8373 55.155C57.5977 55.158 57.5378 54.9354 57.5857 54.7549C57.6336 54.5745 57.7744 54.376 57.9062 54.3519C58.2088 54.2978 58.1009 54.5865 58.1369 54.7008Z" fill="#DD9300"/>
<path d="M68.6385 48.6912V49.2265C68.2791 49.413 67.9496 49.7018 67.4973 49.5905C67.7519 49.1273 68.0694 48.7513 68.6385 48.6912Z" fill="#F8E8C9"/>
<path d="M59.335 49.5153L60.5331 49.7168L59.0744 50.165C59.0315 50.0434 59.0344 49.9103 59.0824 49.7906C59.1303 49.671 59.2202 49.5731 59.335 49.5153Z" fill="#F6E3BD"/>
<path d="M59.8711 53.5067C60.2036 53.5067 60.3803 53.6601 60.4193 53.9128C60.4193 53.985 60.2635 54.1504 60.1617 54.1684C60.1044 54.1808 60.045 54.1799 59.9881 54.1658C59.9312 54.1517 59.8783 54.1248 59.8332 54.0871C59.7882 54.0495 59.7523 54.002 59.7283 53.9483C59.7042 53.8947 59.6926 53.8362 59.6944 53.7774C59.6854 53.6842 59.8202 53.5789 59.8711 53.5067Z" fill="#DE970A"/>
<path d="M46.6676 57.6966C46.5568 57.447 46.4699 57.3417 46.4789 57.2455C46.5131 57.1176 46.5688 56.9965 46.6437 56.8875C46.7395 56.9567 46.9282 57.0349 46.9222 57.086C46.8595 57.2982 46.7741 57.5029 46.6676 57.6966Z" fill="#DF9B12"/>
<path d="M51.2685 12.7082C51.3863 12.6387 51.5186 12.5979 51.6549 12.5891C51.7911 12.5802 51.9276 12.6035 52.0533 12.6571C51.8107 13.5293 52.868 13.2346 53.0238 13.7489C53.2634 14.9671 51.8257 14.7686 51.5261 15.5536C51.4393 15.5711 51.3511 15.5811 51.2625 15.5837C50.6185 15.5837 50.0973 14.8829 49.3904 15.2528L48.9052 14.6964C48.7824 14.0557 49.1478 13.5083 49.2496 12.9097H49.3844C49.684 13.0481 50.0255 13.5684 50.313 13.2376C50.5347 12.9849 50.0584 12.6932 49.7978 12.4856C50.2381 12.1036 50.5377 12.6992 50.93 12.648C50.8881 13.03 50.8013 13.4241 51.1577 13.7068C51.1966 13.7399 51.3494 13.6797 51.4153 13.6226C51.8466 13.2346 51.3254 13.006 51.2685 12.7082Z" fill="#DE970A"/>
<path d="M48.8871 34.5362L48.2282 35.4385C47.7429 35.8025 45.9577 34.5091 46.8054 36.5665L46.7604 36.6597C46.2872 36.7229 46.2392 36.1574 45.8768 36.0581C45.2148 36.3289 45.3346 34.3858 44.3791 35.5197C43.181 34.5753 43.2079 34.461 44.9273 33.6579L45.2957 33.309L45.6162 33.6368C46.5148 34.2384 47.3984 34.9903 48.5756 34.2384L48.8871 34.5362Z" fill="#333333"/>
<path d="M51.5291 15.5416C51.8286 14.7686 53.2634 14.9671 53.0268 13.7369C53.0537 13.3699 53.0777 13.0029 53.1046 12.639C53.5659 12.1337 54.1231 13.2045 54.5724 12.5488C54.6598 12.5367 54.7485 12.5367 54.8359 12.5488C54.4585 15.1596 54.135 15.9837 51.9364 16.2334C51.8089 16.1703 51.7024 16.0713 51.6301 15.9484C51.5577 15.8256 51.5226 15.6842 51.5291 15.5416Z" fill="#333333"/>
<path d="M45.8559 20.7873C46.5449 20.6429 46.8414 21.052 46.9103 21.6295C47.0031 22.4566 47.5483 22.6943 48.2372 22.8056L49.2617 23.744L48.8782 24.6644C47.5783 24.4268 46.1585 24.3636 46.2903 22.4085C46.3142 22.0235 45.8499 22.1438 45.5654 22.1859L45.2838 21.9543C45.5234 21.6295 46.5479 21.7498 45.8829 20.9076L45.8559 20.7873Z" fill="#F0EBDE"/>
<path d="M49.2736 23.744L48.2522 22.8055L48.5517 22.5739C49.0159 22.777 49.5258 22.8518 50.0284 22.7905C50.1423 24.0207 51.3883 23.4973 51.9485 24.0387C52.1042 24.7697 51.8017 25.4254 51.604 26.0991C51.4932 26.3788 51.2416 26.427 50.9899 26.4721C50.7114 26.2766 50.4807 25.9517 50.0644 26.1112C50.0539 26.0515 50.0539 25.9904 50.0644 25.9307C50.1842 25.0644 50.0674 24.2794 49.2736 23.744Z" fill="#333333"/>
<path d="M49.2526 12.8977C49.1508 13.4993 48.7854 14.0437 48.9082 14.6844C48.6499 14.9035 48.3675 15.0922 48.0665 15.2468C47.698 15.3912 47.4015 15.1295 47.1679 14.8648C46.7815 14.4076 47.2547 14.2963 47.5063 14.1189C48.0874 13.7098 48.1054 13.3759 47.4105 13.0902C47.1619 12.9879 46.7455 13.021 46.7785 12.618C46.8234 12.1187 47.2937 12.2841 47.5932 12.2119C48.3151 12.0314 48.8303 12.3623 49.2526 12.8977Z" fill="#F8F6F0"/>
<path d="M49.4683 17.7463C49.1987 18.1042 48.7944 17.996 48.4379 18.0471C47.1289 18.1193 47.0181 18.3118 47.6142 19.4788L47.749 19.8277C46.8504 20.0593 46.7096 20.0353 46.5149 19.0066C46.3352 18.0441 45.811 17.6801 44.9363 17.626C44.6937 17.2019 44.9513 17.0876 45.3018 17.0244L49.4683 17.7463Z" fill="#F8E9CC"/>
<path d="M48.5517 34.2174C47.3745 34.9814 46.4969 34.2414 45.5923 33.6158C46.0206 33.315 45.9517 32.8518 45.9397 32.4127C46.5359 32.3514 47.1333 32.5166 47.6142 32.8759C47.2068 33.1616 47.3835 33.4774 47.6142 33.7301C47.8448 33.9828 48.1324 33.8835 48.348 33.6338L48.5517 34.2174Z" fill="#DF980D"/>
<path d="M45.3617 41.9956C46.2094 41.9625 45.6822 42.898 46.1525 43.1266C45.3946 43.3491 44.6548 43.6108 43.84 43.5537C43.5016 43.5296 43.0373 43.5537 43.0343 43.1175C43.0323 43.0177 43.0551 42.919 43.1005 42.8303C43.146 42.7415 43.2128 42.6655 43.2948 42.6091C43.3768 42.5527 43.4715 42.5177 43.5703 42.5072C43.6692 42.4967 43.7691 42.5111 43.861 42.5491C44.1333 42.6742 44.4438 42.6862 44.7248 42.5826C45.0059 42.4789 45.2348 42.2679 45.3617 41.9956Z" fill="#DE9505"/>
<path d="M51.8107 17.7914C52.0773 18.2486 52.898 18.5254 52.2959 19.2653C51.9694 19.6683 51.7508 20.3662 51.0588 20.0503C50.286 19.7014 50.8701 19.3134 51.0978 18.9074C51.2416 18.6487 50.8492 18.2426 51.2386 17.9719L51.8107 17.7914Z" fill="#E09C14"/>
<path d="M49.2736 23.744C50.0674 24.2794 50.1722 25.0644 50.0734 25.9307C49.8411 26.0008 49.6148 26.0893 49.3965 26.1954C49.0969 26.3578 48.8902 26.9503 48.4979 26.3006C48.2462 25.8735 48.2912 25.5607 48.7974 25.3712C49.2437 25.1968 49.022 24.926 48.8842 24.6704L49.2736 23.744Z" fill="#DF990F"/>
<path d="M44.9154 33.6489C43.196 34.452 43.1631 34.5663 44.3672 35.5107L43.7831 35.986C42.7108 35.3273 42.9235 34.3016 43.3219 33.4804C43.8101 32.4848 44.3403 33.8444 44.9154 33.6489Z" fill="#EEE9DB"/>
<path d="M56.7141 13.4481C56.5373 14.0496 56.1989 14.6512 55.5339 14.2933C54.8689 13.9353 55.2553 13.418 55.6357 12.9728C55.7585 12.8285 55.6956 12.5187 55.7166 12.287L56.3157 12.5668C56.4535 12.8615 56.5823 13.1563 56.7141 13.4481Z" fill="#333333"/>
<path d="M44.3942 29.4409C44.7683 29.8458 44.9815 30.3745 44.9933 30.9268C44.4181 30.7493 44.2414 31.4411 43.7741 31.4982C43.855 30.9478 43.3848 30.6199 43.235 30.1507C43.5495 29.7868 44.2234 30.0033 44.4032 29.4288L44.3942 29.4409Z" fill="#F2EEE3"/>
<path d="M45.808 25.5276C46.0091 25.2778 46.2879 25.1031 46.5997 25.0317C46.9116 24.9602 47.2383 24.9961 47.5274 25.1336C47.6112 25.1667 47.6651 25.5938 47.6082 25.6299C47.0092 26.0029 46.479 26.794 45.6283 26.0871L45.808 25.5276Z" fill="#E19F1C"/>
<path d="M45.3018 17.0094C44.9513 17.0696 44.7027 17.1839 44.9364 17.611C44.4481 17.2501 44.1995 18.6156 43.6933 17.8035C43.3488 17.247 43.7502 16.9463 44.1875 16.6154C44.8345 16.1281 45.1281 16.3176 45.3018 17.0094Z" fill="#DE970A"/>
<path d="M49.3934 15.2408C50.1003 14.8708 50.6215 15.5656 51.2655 15.5716C51.2655 15.8724 51.3374 16.1732 50.939 16.2634C50.8331 16.2223 50.7158 16.2222 50.61 16.2634C50.5041 16.3046 50.4174 16.384 50.3669 16.486C50.0344 16.2334 49.4862 16.2484 49.3904 15.701L49.3934 15.2408Z" fill="#F9F7F2"/>
<path d="M43.7831 35.986L44.3672 35.5107C45.3347 34.3767 45.2149 36.3198 45.8648 36.0491C45.9367 36.777 45.4425 36.6507 45.0022 36.6356C44.7715 36.0942 44.2024 36.1875 43.7831 35.986Z" fill="#F7F4ED"/>
<path d="M45.8559 20.7872V20.9136C45.4246 21.2865 44.7416 20.712 44.3582 21.3286C44.2264 21.5392 43.9718 21.6956 43.7831 21.3678C43.6303 21.097 43.7352 20.5286 43.7981 20.5496C44.487 20.7752 45.3497 19.4788 45.8559 20.7872Z" fill="#F2EEE3"/>
<path d="M45.2837 21.9573L45.5653 22.1889C45.5054 22.2641 45.4605 22.3754 45.3826 22.4085C44.8794 22.613 44.5109 23.2868 43.8489 22.8897C43.7845 22.8258 43.7379 22.7461 43.7138 22.6585C43.6896 22.5709 43.6887 22.4785 43.7112 22.3904C44.0856 21.7708 44.7206 21.9573 45.2837 21.9573Z" fill="#E9E1CF"/>
<path d="M45.3377 12.4224C44.9782 12.8766 44.6517 13.2857 44.2893 13.7369C43.9898 13.3248 43.6902 12.9337 43.9418 12.5157C44.2683 12.0013 44.7715 12.1517 45.3377 12.4224Z" fill="#EDE7D9"/>
<path d="M43.7741 31.4982C44.2414 31.4411 44.4181 30.7493 44.9932 30.9267L44.9752 30.8967C44.9992 31.1975 45.3347 31.5253 44.9543 31.8291C44.5259 31.9223 44.0976 32.0276 43.6633 32.0998C43.4506 32.1359 43.229 32.0246 43.3068 31.799C43.3518 31.6577 43.6094 31.5825 43.7741 31.4982Z" fill="#DD9403"/>
<path d="M43.16 37.6373C43.7591 37.2673 44.1994 36.8522 44.8165 37.2402C44.8546 37.2735 44.8851 37.3147 44.9061 37.3609C44.927 37.407 44.9378 37.4572 44.9378 37.5079C44.9378 37.5587 44.927 37.6088 44.9061 37.655C44.8851 37.7012 44.8546 37.7423 44.8165 37.7756C44.2653 38.299 43.7741 38.0463 43.16 37.6373Z" fill="#DE9505"/>
<path d="M44.4032 29.4288C44.1746 29.3655 43.9521 29.282 43.7382 29.1792C43.4387 29.0077 43.1392 28.7881 43.3009 28.3791C43.3359 28.2908 43.3901 28.2115 43.4596 28.147C43.529 28.0824 43.6119 28.0343 43.7023 28.0061C44.2115 27.97 44.0887 28.4663 44.2175 28.74C44.2988 28.9673 44.358 29.202 44.3942 29.4408L44.4032 29.4288Z" fill="#DE9608"/>
<path d="M45.8079 25.5276L45.6282 26.0871C45.2089 26.0089 45.3616 26.821 44.9153 26.5864C44.469 26.3518 44.8584 25.8374 44.6577 25.4976L44.9573 25.1757L45.8079 25.5276Z" fill="#D9CDAD"/>
<path d="M53.1016 12.651C53.0746 13.0149 53.0507 13.3819 53.0237 13.7489C52.868 13.2345 51.8106 13.5293 52.0532 12.657C52.215 12.5337 52.3767 12.4044 52.5385 12.278C52.6588 12.2762 52.7768 12.3108 52.8773 12.3774C52.9777 12.4439 53.0559 12.5392 53.1016 12.651Z" fill="#F7F4ED"/>
<path d="M56.714 13.4481C56.5822 13.1473 56.4534 12.8616 56.3217 12.5668C56.5912 11.6283 56.9656 12.6961 57.2742 12.5187C57.8612 13.2977 56.8159 13.0872 56.714 13.4481Z" fill="#E2A224"/>
<path d="M53.1017 12.651C53.056 12.5392 52.9778 12.4439 52.8774 12.3774C52.7769 12.3108 52.6589 12.2762 52.5386 12.278C53.3024 11.7366 53.9883 11.7847 54.5694 12.5608C54.1201 13.2165 53.563 12.1457 53.1017 12.651Z" fill="#ECE6D6"/>
<path d="M45.0142 36.6357C45.4545 36.6627 45.9487 36.777 45.8768 36.0491C46.2393 36.1484 46.2872 36.7139 46.7604 36.6507C46.6017 37.0838 45.8079 36.8613 45.8618 37.52C45.4006 37.4087 45.2148 37.0147 45.0142 36.6357Z" fill="#E1A01F"/>
<path d="M49.3904 15.701C49.4863 16.2484 50.0344 16.2334 50.3669 16.486C50.1422 16.8229 49.7888 17.0876 49.4533 16.841C49.3653 16.7766 49.2927 16.6935 49.2407 16.5975C49.1886 16.5015 49.1585 16.3951 49.1525 16.286C49.1465 16.1768 49.1647 16.0677 49.2058 15.9666C49.247 15.8654 49.31 15.7747 49.3904 15.701Z" fill="#DE9608"/>
<path d="M44.9573 31.8291C45.3377 31.5283 45.0022 31.2095 44.9782 30.8967C46.395 30.8967 45.2568 31.9584 45.5773 32.4006L45.3227 32.7164C45.4096 32.3434 45.143 32.1028 44.9573 31.8291Z" fill="#F5E0B5"/>
<path d="M44.9574 25.1757L44.6578 25.4976C44.0078 25.4976 43.7412 25.266 44.0767 24.6193L44.6758 24.6042L44.9574 25.1757Z" fill="#DE9505"/>
<path d="M51.2685 12.7082C51.3254 13.009 51.8346 13.2285 51.4182 13.6105C51.3523 13.6677 51.1996 13.7278 51.1606 13.6947C50.8042 13.412 50.891 13.018 50.933 12.636L51.2685 12.7082Z" fill="#F9EDD4"/>
<path d="M50.0673 26.1112C50.4837 25.9518 50.7143 26.2766 50.9929 26.4721L50.6724 27.3083L50.3249 27.2842C50.4148 26.8541 49.8367 26.5714 50.0673 26.1112Z" fill="#FCF5E8"/>
<path d="M45.4964 38.7201C45.5264 38.9005 45.5534 39.081 45.5833 39.2585C45.149 39.3096 44.6847 39.2284 44.7865 38.7141C44.8794 38.2719 45.2568 38.6238 45.4964 38.7201Z" fill="#DE9505"/>
<path d="M48.366 33.6488C48.1503 33.8985 47.8867 34.0188 47.6321 33.7451C47.3775 33.4714 47.2187 33.1766 47.6321 32.8909L48.366 33.6488Z" fill="#FAEED6"/>
<path d="M47.9347 31.438C47.9497 31.6576 47.9647 31.8742 47.9767 32.0908C47.4734 32.0246 47.0032 31.9073 46.7576 31.3238C47.1949 31.053 47.5274 31.796 47.9347 31.438Z" fill="#FDFAF2"/>
<path d="M50.948 16.2635C51.3464 16.1702 51.2865 15.8604 51.2745 15.5716C51.363 15.5691 51.4512 15.559 51.5381 15.5416C51.5284 15.6863 51.5616 15.8307 51.6335 15.9565C51.7055 16.0824 51.813 16.1839 51.9424 16.2484C51.9512 16.2941 51.9461 16.3414 51.928 16.3843C51.9099 16.4271 51.8794 16.4636 51.8406 16.489C51.5291 16.4349 51.0738 16.9823 50.948 16.2635Z" fill="#DF980D"/>
<path d="M45.3258 32.7284L45.5804 32.4126L45.9488 32.4276C45.9638 32.8638 46.0327 33.33 45.6043 33.6308L45.2838 33.3029L45.3258 32.7284Z" fill="#FAEED6"/>
<path d="M47.7489 19.8097L47.6141 19.4608C47.8238 19.0156 48.1593 18.9916 48.5577 19.178C48.5853 19.2139 48.6052 19.2552 48.6161 19.2992C48.6269 19.3432 48.6284 19.389 48.6206 19.4337L47.7489 19.8097Z" fill="#DF990F"/>
<path d="M48.3301 11.502C48.1291 11.6147 47.9038 11.6765 47.6737 11.6823C47.4436 11.6881 47.2155 11.6376 47.0092 11.5351C47.2102 11.4225 47.4354 11.3606 47.6656 11.3549C47.8957 11.3491 48.1237 11.3996 48.3301 11.502Z" fill="#333333"/>
<path d="M49.8008 12.4615C50.0614 12.6691 50.5377 12.9609 50.316 13.2135C50.0165 13.5444 49.702 13.024 49.3875 12.8857L49.8008 12.4615Z" fill="#FBF1DE"/>
<path d="M44.6728 24.6042L44.0737 24.6193C44.0737 24.4178 43.6903 24.1501 44.1007 24.0358C44.511 23.9215 44.7596 24.132 44.6728 24.6042Z" fill="#E9E1CF"/>
<path d="M62.6628 69.719C60.6768 68.8167 62.2195 67.9143 62.6388 66.9879C63.6872 65.857 64.6757 64.6658 65.9008 63.7094C66.5657 65.0148 66.1613 66.4164 66.2272 67.7669C66.2692 68.6061 66.1913 69.4483 66.1673 70.2875L62.9324 69.716L62.6628 69.719Z" fill="#E3AE05"/>
<path d="M79.1282 61.2971C77.0045 62.2716 74.8059 63.1018 72.9368 64.5516C72.9368 64.0884 72.9158 63.6252 72.9069 63.1619C74.2847 63.0837 75.1684 61.9257 76.4174 61.5437C76.7918 61.4324 76.6421 61.0715 76.3605 60.867C75.8064 60.4609 73.2783 60.7316 72.6553 61.258L72.5115 60.4098L72.811 60.0909L76.1568 60.3436H77.5886C78.2865 60.3677 78.5621 61.0595 79.1282 61.2971Z" fill="#D3AC30"/>
<path d="M72.6553 61.2579C73.2784 60.7316 75.8065 60.4608 76.3606 60.8669C76.6422 61.0714 76.7919 61.4324 76.4175 61.5437C75.1685 61.9257 74.2848 63.0837 72.907 63.1619L72.6074 62.4039C72.6164 62.0219 72.6344 61.6399 72.6553 61.2579Z" fill="#E3AE05"/>
<path d="M65.9008 63.7093C64.6757 64.6658 63.6873 65.8569 62.6389 66.9879L62.3394 66.7142C63.3161 64.9584 64.6415 63.4228 66.2333 62.2024C66.2979 62.4623 66.3015 62.7337 66.2438 62.9952C66.1861 63.2567 66.0687 63.5012 65.9008 63.7093Z" fill="#D4AE36"/>
<path d="M77.3071 66.7021C77.7204 66.7232 78.1817 66.6691 78.2057 67.2857C76.5762 67.5864 75.0875 68.4286 73.4131 68.5429C73.3344 68.4187 73.2837 68.2786 73.2646 68.1326C73.2455 67.9866 73.2583 67.8382 73.3023 67.6977C74.7221 67.6977 75.9711 67.036 77.3071 66.7021Z" fill="#D3AB2E"/>
<path d="M62.9294 69.7161L66.1644 70.2875L66.1914 71.8396C65.811 72.1645 65.9757 72.6066 65.9428 73.0066L65.6432 72.754L65.3437 72.1103C66.1285 71.3192 65.8349 70.9493 64.8704 70.6906C64.1695 70.5071 63.229 70.7087 62.9294 69.7161Z" fill="#D4AE36"/>
<path d="M72.4726 55.9702C73.8685 55.519 74.797 54.0812 76.4085 54.0842C75.2314 55.2874 73.7726 56.0634 72.2869 56.7913C72.2241 56.6529 72.2082 56.4976 72.2418 56.3493C72.2753 56.2009 72.3564 56.0677 72.4726 55.9702Z" fill="#D3AC30"/>
<path d="M68.6625 53.239C68.7194 52.5532 69.0549 52.09 69.7378 52.0148C70.0374 51.9847 70.1422 52.3156 70.0553 52.5622C69.8516 53.1638 69.7558 53.9789 69.0788 54.1353C68.5367 54.2556 68.7074 53.5909 68.6625 53.239Z" fill="#DE9505"/>
<path d="M71.7117 52.2675C72.197 52.087 72.5684 51.5546 73.2663 51.7862C73.1858 52.1513 73.023 52.493 72.7903 52.785C72.5577 53.077 72.2614 53.3116 71.9244 53.4706C71.7163 53.1066 71.6411 52.6811 71.7117 52.2675Z" fill="#D2A929"/>
<path d="M65.4245 59.8563L66.2063 59.1705V60.8097C66.041 60.8688 65.8596 60.8628 65.6984 60.7931C65.5373 60.7233 65.4084 60.595 65.3376 60.4338C65.766 60.3074 65.4575 60.0578 65.4245 59.8563Z" fill="#F8ECC4"/>
<path d="M68.0454 69.2679C68.3659 68.5219 68.5127 68.0648 69.3184 67.5835C68.971 68.3475 68.8811 68.8287 68.0454 69.2679Z" fill="#E09D17"/>
<path d="M72.6554 61.2579C72.6344 61.6399 72.6164 62.0219 72.5955 62.4039C71.9724 61.7663 72.1402 61.0925 72.5116 60.4097L72.6554 61.2579Z" fill="#333333"/>
<path d="M71.7836 68.0406C71.6698 68.7445 71.7537 69.1475 71.2595 69.34C70.9659 68.8377 71.2834 68.5791 71.7836 68.0406Z" fill="#DD9403"/>
<path d="M69.9205 65.9201C70.0583 65.2644 70.0194 64.8493 70.5376 64.6779C70.7652 65.1982 70.4627 65.4659 69.9205 65.9201Z" fill="#C99900"/>
<path d="M65.9457 73.0066C65.9787 72.6066 65.8139 72.1644 66.1943 71.8396C66.2283 72.5314 66.2592 73.2232 66.2872 73.915L65.9877 73.9361L65.9457 73.0066Z" fill="#D4AE36"/>
<path d="M69.0339 55.6453C68.9471 55.7824 68.8468 55.9104 68.7344 56.0273C68.7134 56.0453 68.5487 55.913 68.4498 55.8498C68.5283 55.6926 68.6292 55.5476 68.7494 55.4197C68.8632 55.3265 69.013 55.3776 69.0339 55.6453Z" fill="#333333"/>
<path d="M53.0448 77.1184C53.3952 76.3525 53.886 75.6597 54.4915 75.076C55.9892 73.6984 58.0201 73.8217 58.733 75.7227C57.7625 76.231 56.798 76.7544 55.7017 76.9469L53.0448 77.1184Z" fill="#DE9608"/>
<path d="M94.1021 88.6655C92.9938 89.3483 91.8526 89.9409 90.5077 89.8687C91.5627 89.1229 92.8125 88.7046 94.1021 88.6655Z" fill="#D6B13D"/>
<path d="M95.8783 83.5431C95.5548 83.11 95.0725 83.3085 94.6592 83.2423C95.7015 82.7972 95.9112 82.8513 95.8783 83.5431Z" fill="#D5B03B"/>
<path d="M77.6066 60.3495H76.1748C76.3703 60.1699 76.6257 60.0703 76.8907 60.0703C77.1557 60.0703 77.4111 60.1699 77.6066 60.3495Z" fill="#E5B61F"/>
<path d="M98.9156 81.1639C98.3857 81.2138 97.8532 81.1016 97.3879 80.8421C98.0199 80.3668 98.4423 80.9113 98.9156 81.1639Z" fill="#E5B41A"/>
<path d="M24.496 62.2265C28.1713 64.9336 26.0805 69.9236 22.9983 71.4636C21.8481 72.0411 19.6794 71.4636 18.8767 70.5011C18.3315 69.8394 18.652 69.2107 18.8767 68.543C19.1253 67.8031 19.961 67.3398 19.8502 66.4375C20.5211 65.9262 21.3688 65.5983 21.6654 64.6899C22.6523 63.9945 23.5471 63.1758 24.3282 62.2536C24.3338 62.2369 24.3438 62.222 24.3571 62.2107C24.3705 62.1993 24.3867 62.1918 24.4039 62.189C24.4212 62.1862 24.4389 62.1883 24.4552 62.1949C24.4714 62.2015 24.4855 62.2124 24.496 62.2265ZM23.846 68.4197C24.1455 67.391 24.0287 66.7052 23.178 66.4285C22.4921 66.2059 22.0757 66.5819 22.0158 67.3308C23.0912 67.3278 23.0911 67.3278 23.846 68.4197Z" fill="#DD9403"/>
<path d="M8.42894 46.5616C8.52779 45.96 8.18632 45.2832 8.72847 44.7568C8.63262 45.3584 8.97409 46.0201 8.42894 46.5616Z" fill="#333333"/>
<path d="M31.2177 43.5507C31.2177 41.4452 31.2226 39.3397 31.2326 37.2342C31.6749 39.3168 31.6698 41.4702 31.2177 43.5507Z" fill="#333333"/>
<path d="M30.331 51.6689C30.2561 51.0273 30.3373 50.3771 30.5676 49.7739C30.5197 50.4116 30.8162 51.0884 30.331 51.6689Z" fill="#333333"/>
<path d="M30.939 46.2548C30.9181 45.6833 30.8731 45.1118 31.1726 44.5854C31.1217 45.1448 31.3913 45.7494 30.939 46.2548Z" fill="#333333"/>
<path d="M30.6305 48.9618C30.5493 48.399 30.6315 47.8246 30.8671 47.3075C30.8252 47.8639 31.0948 48.4655 30.6305 48.9618Z" fill="#333333"/>
<path d="M30.28 54.8512C30.1563 54.5618 30.0925 54.2502 30.0925 53.9353C30.0925 53.6204 30.1563 53.3088 30.28 53.0194V54.8512Z" fill="#333333"/>
<path d="M40.7368 54.9986L40.4223 55.3595L39.8861 54.376L40.2036 54.0451C40.2838 54.0813 40.367 54.1105 40.4522 54.1323C40.5481 54.4211 40.6439 54.7098 40.7368 54.9986Z" fill="#F7E4BF"/>
<path d="M8.34808 43.659C8.0096 43.289 8.19232 42.9792 8.11743 42.3957C8.5248 42.9612 8.41397 43.271 8.34808 43.659Z" fill="#333333"/>
<path d="M15.3782 42.6243C14.9428 42.8136 14.5943 43.1604 14.4017 43.5958C13.6636 43.2827 13.0231 42.7757 12.5476 42.128C12.3409 41.8272 12.1073 41.4994 12.3439 41.1715C12.6255 40.7835 12.9939 41.0753 13.2665 41.2407C13.9854 41.6768 14.6773 42.1611 15.3782 42.6243Z" fill="#333333"/>
<path d="M30.6814 41.4212V38.7682H30.8102V41.4212H30.6814Z" fill="#FBFAF7"/>
<path d="M21.5935 44.438C22.4382 45.208 22.1177 45.8938 22.0069 46.5435C21.893 45.9359 21.7792 45.3283 21.5935 44.438Z" fill="#FBFAF7"/>
<path d="M21.6715 64.6899C21.3719 65.5923 20.5272 65.9261 19.8563 66.4375C15.9623 67.1443 11.9426 67.3579 8.23132 68.9791C7.80598 69.1656 7.09308 69.316 6.89539 68.7716C6.6977 68.2271 7.36866 67.9745 7.76704 67.7248C8.88131 67.024 10.1633 66.7834 11.4154 66.4345C12.2091 66.2149 13.0449 66.1036 13.8836 65.5832C12.5806 64.3049 10.4898 64.6809 9.39052 62.9724C10.1009 62.712 10.8837 62.7357 11.5771 63.0386C11.9134 63.1308 12.2395 63.2568 12.5506 63.4146C15.1626 65.0779 17.9213 65.6705 20.9376 64.6749C21.1814 64.6401 21.4293 64.6452 21.6715 64.6899Z" fill="#333333"/>
<path d="M65.4245 59.8563C65.4575 60.0578 65.766 60.3075 65.3287 60.4338L60.8656 60.7105H56.6392C56.5465 60.703 56.4533 60.703 56.3606 60.7105C56.3217 60.4609 56.4954 60.4097 56.6781 60.3526H59.335C59.9011 60.5421 60.3414 60.115 60.8536 60.0518C62.3614 59.779 63.8991 59.7132 65.4245 59.8563Z" fill="#D2AA2B"/>
<path d="M56.3546 60.7225C56.4473 60.715 56.5404 60.715 56.6331 60.7225C57.0645 61.2008 57.6486 60.9331 58.1548 61.0414C57.5078 61.4414 56.8847 61.5136 56.3037 60.9181C56.2909 60.903 56.2819 60.8849 56.2775 60.8656C56.2731 60.8463 56.2734 60.8262 56.2784 60.807C56.2834 60.7878 56.2929 60.7701 56.3062 60.7554C56.3195 60.7407 56.336 60.7294 56.3546 60.7225Z" fill="#E5B51C"/>
<path d="M58.1548 61.0294C57.6486 60.9211 57.0645 61.1888 56.6332 60.7105H60.8656C60.0149 61.273 59.0504 60.8549 58.1548 61.0294Z" fill="#D5B03B"/>
<path d="M65.9457 73.0066L65.9727 73.936C65.2867 74.9678 64.2474 74.8384 63.1541 74.8143C63.2499 74.1616 63.7531 73.93 64.1335 73.6112L65.6312 72.7479L65.9457 73.0066Z" fill="#E2AD03"/>
<path d="M65.6252 72.754L64.1275 73.6172L63.828 73.0156L65.3257 72.1133C65.4335 72.3268 65.5354 72.5404 65.6252 72.754Z" fill="#D4AE36"/>
<path d="M36.0731 72.7239L35.9623 72.4381C36.13 71.3222 35.3992 70.101 36.3756 69.0663C36.4655 68.9701 36.142 68.8317 35.9533 68.8076L36.0941 68.5069C36.786 68.5069 37.2143 68.2542 37.1424 67.4782C38.8288 66.2028 40.7369 66.0795 42.6809 66.5758C44.7327 67.0962 45.6253 68.3805 45.6463 70.5011C45.708 71.8601 45.4729 73.2163 44.9573 74.4744C43.9149 76.8296 41.7523 78.0538 39.0115 77.8463C36.2708 77.6387 34.1621 76.0175 33.557 73.7285C33.557 73.0818 33.557 72.4321 33.581 71.7824C33.527 71.0485 33.8326 70.4981 34.5664 69.8815C34.3178 72.405 35.3752 73.9511 37.442 74.8564C39.1254 75.5302 40.2606 75.2595 41.0364 73.9962C42.0488 72.369 41.8511 70.8139 40.4793 69.6498C40.5482 68.3083 39.5507 69.0814 39.1463 69.0874C37.3012 69.1054 36.4685 70.3116 37.1454 71.8215L37.1874 72.1223C37.2323 73.0908 36.5314 72.6848 36.0731 72.7239Z" fill="#DD9300"/>
<path d="M40.4822 69.6499C41.854 70.8139 42.0517 72.3569 41.0393 73.9962C40.2515 75.2595 39.1163 75.5302 37.4449 74.8565L38.0949 74.5767C38.9186 74.5106 40.0928 74.5557 40.0059 73.533C39.964 73.0427 39.7303 72.8322 40.2425 72.5284C40.8596 72.1614 41.0273 71.626 40.593 71.0064C40.1587 70.3868 39.6495 70.2755 39.2511 71.0756C39.1013 71.3764 38.9306 71.217 38.8198 71.0936C38.655 70.9071 38.649 70.3988 38.2416 70.7928C38.1043 70.9381 38.0098 71.1187 37.9685 71.3146C37.9273 71.5106 37.9409 71.7141 38.008 71.9027C38.1278 72.372 38.7898 72.5735 38.6071 73.2232C37.7684 73.3014 37.5947 72.5615 37.2053 72.1103L37.1633 71.8095C37.4 69.8574 38.3225 69.2558 40.4822 69.6499Z" fill="#FAF9F5"/>
<path d="M37.1903 72.1253C37.5797 72.5765 37.7535 73.3285 38.5922 73.2382C38.7779 72.5885 38.1159 72.387 37.9931 71.9178C37.926 71.7292 37.9123 71.5256 37.9536 71.3296C37.9948 71.1337 38.0894 70.9531 38.2267 70.8079C38.6341 70.3988 38.6401 70.9071 38.8048 71.1087C38.9157 71.232 39.0864 71.3944 39.2362 71.0906C39.6345 70.2905 40.1348 70.3958 40.5781 71.0214C41.0214 71.6471 40.8447 72.1765 40.2276 72.5434C39.7154 72.8442 39.9491 73.0578 39.991 73.548C40.0779 74.5707 38.9037 74.5256 38.08 74.5918C37.2173 74.1857 36.4535 73.6714 36.0701 72.7389C36.5314 72.6848 37.2323 73.0908 37.1903 72.1253Z" fill="#DE9608"/>
<path d="M35.9533 68.8077C36.142 68.8317 36.4655 68.9701 36.3756 69.0663C35.3991 70.101 36.13 71.3222 35.9622 72.4382C35.2314 71.229 35.0726 70.0198 35.9533 68.8077Z" fill="#DE9608"/>
<path d="M37.1424 67.4932C37.2143 68.2693 36.7859 68.5309 36.094 68.5219C36.3023 68.0589 36.6766 67.6916 37.1424 67.4932Z" fill="#DE9608"/>
<path d="M33.575 71.7824C33.575 72.4321 33.56 73.0818 33.551 73.7285C33.3803 73.4319 33.2924 73.0946 33.2967 72.7521C33.3009 72.4096 33.397 72.0746 33.575 71.7824Z" fill="#E09D17"/>
<path d="M19.1973 79.6449C19.976 77.9756 20.7518 77.5394 22.6988 77.774C25.1251 78.0748 26.6437 79.4945 26.9432 81.4677C27.0031 81.8587 26.9972 82.2617 27.0241 82.6558C26.6976 83.7025 26.473 84.7944 26.0267 85.7839C24.6398 88.8489 22.1597 89.3934 19.5357 87.2518C17.6786 85.7479 16.8249 82.4031 17.7385 80.2525H18.3556C18.1998 82.3971 18.6551 84.3071 20.4523 85.6847C21.0753 86.1569 21.7613 86.4367 22.5251 86.1208C23.063 85.9223 23.5382 85.5827 23.9011 85.1373C24.264 84.6919 24.5015 84.157 24.5889 83.5882C24.7986 82.346 24.6728 81.2 23.3907 80.5292C22.4921 79.8946 21.5756 79.9457 20.668 80.5292C20.1438 80.6676 19.8173 81.0616 19.4878 81.4496C18.8977 80.9443 19.38 80.2375 19.1973 79.6449Z" fill="#DD9403"/>
<path d="M18.3795 80.2646H17.7625C18.0979 79.3081 18.2597 78.2222 19.4818 77.9214C19.1074 78.4538 18.5652 78.908 18.6461 79.663L18.3795 80.2646Z" fill="#DF990F"/>
<path d="M18.3796 80.2645L18.6462 79.663L19.0086 79.69C18.9643 80.2353 18.9512 80.7826 18.9696 81.3293C18.9966 81.6542 19.2093 81.9098 19.5208 81.4767C19.8323 81.0436 20.1768 80.6947 20.701 80.5563L21.3 80.8029C20.953 81.0795 20.633 81.3887 20.3445 81.7264C20.1408 82.0141 20.0242 82.3548 20.0088 82.7076C19.9933 83.0603 20.0798 83.41 20.2577 83.7145C20.5093 84.2018 21.0275 84.3402 21.5457 84.292C22.4443 84.2078 23.259 83.9131 23.4028 82.8934C23.5855 81.6151 22.3724 81.958 21.7044 81.6903C22.0908 81.1368 23.1392 82.0091 23.1032 80.8781L23.4207 80.5774C24.6998 81.2481 24.8256 82.3821 24.6189 83.6363C24.5315 84.2051 24.294 84.74 23.9311 85.1854C23.5682 85.6308 23.093 85.9704 22.5551 86.1689C21.7913 86.4697 21.1053 86.205 20.4823 85.7328C18.6641 84.3191 18.2238 82.4151 18.3796 80.2645ZM23.4417 84.5206C22.4143 84.265 21.9261 85.1463 21.0035 85.1222C22.1926 86.1268 22.7558 85.3538 23.4417 84.5206Z" fill="#FBFAF7"/>
<path d="M19.5208 81.4647C19.2212 81.8979 18.9966 81.6422 18.9696 81.3173C18.9512 80.7706 18.9642 80.2233 19.0086 79.6781C19.0747 79.6627 19.1417 79.6516 19.2093 79.645C19.38 80.2375 18.8977 80.9444 19.5208 81.4647Z" fill="#F0CE8C"/>
<path d="M79.0804 66.1186C78.7809 66.5668 78.3286 66.3713 77.9302 66.3983C78.2357 65.9893 78.6041 65.8238 79.0804 66.1186Z" fill="#E9BF3B"/>
<path d="M77.5827 72.366L75.5548 72.6517C76.1389 71.8877 76.8428 71.999 77.5827 72.366Z" fill="#E8BC30"/>
<path d="M79.4218 66.7112C79.7542 66.2931 80.2155 66.4284 80.6469 66.4104C80.3024 66.7292 79.9669 67.2044 79.4218 66.7112Z" fill="#E8BD33"/>
<path d="M49.8038 36.6747C48.7165 37.3846 49.1359 38.8193 48.1444 39.6254C47.5663 40.0917 47.4345 39.9533 47.2218 39.466C46.6317 38.1366 47.5004 36.395 49.8038 36.6747Z" fill="#333333"/>
<path d="M47.5842 40.9279C47.9347 40.3985 48.4289 40.2631 48.8603 40.0676C49.1598 39.9323 49.639 39.5924 49.7589 40.209C49.8248 40.5699 49.8248 41.0813 49.1358 41.1414C48.6027 41.1865 48.0964 41.4753 47.5842 40.9279Z" fill="#E09D17"/>
<path d="M50.6724 27.3083L50.9929 26.4721C51.2445 26.427 51.4961 26.3789 51.6069 26.0991C52.2988 26.4811 52.5265 27.0526 51.9933 27.6602C51.4601 28.2678 51.0618 27.6331 50.6724 27.3083Z" fill="#DF9B12"/>
<path d="M54.2729 42.6122C56.5806 42.6122 58.4514 42.5665 58.4514 42.51C58.4514 42.4535 56.5806 42.4077 54.2729 42.4077C51.9651 42.4077 50.0944 42.4535 50.0944 42.51C50.0944 42.5665 51.9651 42.6122 54.2729 42.6122Z" fill="#FDFCFA"/>
<path d="M68.5787 42.2814H63.2739V42.131H68.5517L68.5787 42.2814Z" fill="#FDFCFA"/>
<path d="M51.9514 24.0387C51.3913 23.4973 50.1542 24.0207 50.0314 22.7905L52.5115 23.0913L52.4966 23.0732C52.3019 23.38 52.3198 23.8192 51.9514 24.0387Z" fill="#E09D17"/>
<path d="M48.5517 19.1781C48.1533 18.9916 47.8178 19.0156 47.6082 19.4608C47.0091 18.2937 47.1229 18.1012 48.4319 18.0291C48.8213 18.375 48.9531 18.7479 48.5517 19.1781Z" fill="#8B6505"/>
<path d="M46.8054 36.5574C45.9577 34.5001 47.7429 35.7935 48.2282 35.4295C48.2042 36.395 47.1498 36.016 46.8054 36.5574Z" fill="#E1A121"/>
<path d="M54.7581 23.3801C55.1265 23.3801 55.2193 23.6117 55.1564 23.8583C55.0216 24.3727 54.8899 24.9231 54.3447 25.1637C54.3006 25.1838 54.2518 25.1908 54.2039 25.1839C54.156 25.1771 54.1111 25.1567 54.0743 25.1252C54.0375 25.0936 54.0105 25.0522 53.9963 25.0057C53.9821 24.9593 53.9814 24.9098 53.9942 24.8629C54.162 24.3155 54.159 23.6718 54.7581 23.3801Z" fill="#E1A01F"/>
<path d="M52.9729 31.5825C53.1729 31.7733 53.3391 31.9971 53.4641 32.2442C53.545 32.4999 53.3293 32.6893 53.0448 32.6713C52.7602 32.6532 52.6374 32.4216 52.5925 32.184C52.5475 31.9464 52.6823 31.7389 52.9729 31.5825Z" fill="#E7B147"/>
<path d="M60.4732 12.5157H58.2117V12.3683H60.4911L60.4732 12.5157Z" fill="#FBFAF7"/>
<path d="M46.7695 42.4378C46.9612 41.9174 47.2967 41.8152 47.7131 41.9475C47.8029 41.9776 47.9287 42.2272 47.8958 42.2754C47.5873 42.7115 47.2069 42.6604 46.7695 42.4378Z" fill="#E6B045"/>
<path d="M49.04 28.9836C49.1563 29.1555 49.2565 29.3378 49.3395 29.5281C49.4294 29.7657 49.2287 29.898 49.04 29.9522C48.6985 30.0544 48.5997 29.8138 48.5967 29.5401C48.6147 29.3686 48.5518 29.1431 49.04 28.9836Z" fill="#DF9B12"/>
<path d="M60.5511 13.2075C61.2371 13.7609 60.7458 14.191 60.3265 14.4647C59.9071 14.7385 59.9401 14.3384 59.979 14.0587C60.1493 13.992 60.2952 13.8748 60.3974 13.7228C60.4996 13.5707 60.5533 13.3909 60.5511 13.2075Z" fill="#896200"/>
<path d="M56.6991 38.32C56.6033 38.6569 56.4415 38.7862 56.2648 38.6509C56.2047 38.586 56.1592 38.5089 56.1313 38.4249C56.1034 38.3408 56.0937 38.2517 56.103 38.1636C56.1043 38.1169 56.1179 38.0713 56.1424 38.0315C56.1669 37.9918 56.2014 37.9592 56.2425 37.9372C56.2836 37.9152 56.3298 37.9045 56.3763 37.9062C56.4228 37.908 56.4681 37.922 56.5074 37.947C56.6392 38.0252 56.6662 38.2478 56.6991 38.32Z" fill="#E5AD3D"/>
<path d="M60.5511 13.2074C60.5532 13.3909 60.4996 13.5707 60.3974 13.7228C60.2952 13.8748 60.1492 13.992 59.979 14.0587C59.8891 13.5834 59.7663 13.0901 60.5511 13.2074Z" fill="#8E680A"/>
<path d="M74.3117 44.6486C75.1684 44.3869 75.8094 44.3207 75.8393 45.5088C75.8573 46.5495 75.5398 46.9075 74.4794 46.8804C71.9543 46.8172 69.4263 46.8593 66.8982 46.5586C69.3304 46.5586 71.7626 46.5586 74.1949 46.5586C74.752 46.5586 75.4409 46.7631 75.5158 45.8036C75.5967 44.9223 75.1803 44.6155 74.3117 44.6486Z" fill="#FDFCFA"/>
<path d="M61.0543 47.0759H49.1987V46.9225H61.1023L61.0543 47.0759Z" fill="#FDFCFA"/>
<path d="M70.3879 45.2893H62.6779V45.1389H70.34L70.3879 45.2893Z" fill="#FDFCFA"/>
<path d="M59.3349 60.3646H57.2651C57.9421 59.9495 58.631 59.8833 59.3349 60.3646Z" fill="#F0E2B8"/>
<path d="M23.846 68.4196C23.0762 67.3278 23.0762 67.3278 22.0159 67.3188C22.0758 66.5818 22.4921 66.2059 23.1781 66.4164C24.0287 66.7052 24.1396 67.3909 23.846 68.4196Z" fill="#F9EDD4"/>
<path d="M40.4822 69.6498C38.3226 69.2558 37.4 69.8574 37.1484 71.8215C36.4715 70.3176 37.3042 69.1144 39.1493 69.0874C39.5656 69.0814 40.5511 68.3083 40.4822 69.6498Z" fill="#DE9608"/>
<path d="M23.4237 80.5413L23.1062 80.8421C22.5357 80.5973 21.8945 80.5758 21.309 80.7819L20.71 80.5353C21.6086 79.9578 22.5162 79.9066 23.4237 80.5413Z" fill="#FBF2E0"/>
<path d="M21.294 80.7909C21.8795 80.5848 22.5207 80.6063 23.0912 80.8511C23.1272 81.982 22.0788 81.1098 21.6924 81.6632C22.3604 81.9459 23.5735 81.603 23.3908 82.8663C23.247 83.886 22.4233 84.1808 21.5336 84.265C21.0154 84.3131 20.4973 84.1747 20.2456 83.6875C20.0678 83.3829 19.9813 83.0332 19.9967 82.6805C20.0122 82.3278 20.1288 81.987 20.3325 81.6993C20.6236 81.3666 20.9456 81.0624 21.294 80.7909Z" fill="#DF980D"/>
<path d="M23.4416 84.5207C22.7557 85.3568 22.1926 86.1299 21.0034 85.1222C21.926 85.1433 22.4142 84.262 23.4416 84.5207Z" fill="#E3A830"/>
</g>
<defs>
<clipPath id="clip0_8_3607">
<rect width="107" height="108" fill="white"/>
</clipPath>
</defs>
</svg>
