<svg width="20" height="20" viewBox="0 0 20 20" fill="none" xmlns="http://www.w3.org/2000/svg">
<path d="M6.26713 17.4994C6.78479 17.4899 7.1967 17.0625 7.18715 16.5448C7.17759 16.0272 6.7502 15.6152 6.23254 15.6248C5.71488 15.6343 5.30297 16.0617 5.31252 16.5794C5.32207 17.0971 5.74946 17.509 6.26713 17.4994Z" fill="#333333"/>
<path d="M15.9576 16.5845C15.9699 16.0669 15.5603 15.6373 15.0427 15.6249C14.5251 15.6126 14.0955 16.0222 14.0831 16.5398C14.0708 17.0574 14.4804 17.487 14.998 17.4994C15.5156 17.5117 15.9452 17.1021 15.9576 16.5845Z" fill="#333333"/>
<path d="M18.1172 5.16412C18.0898 5.07037 18.0078 5.00787 17.9141 5.00005L5.19141 3.76959C5.08203 3.75787 4.94922 3.68755 4.89844 3.58599C4.75 3.30865 4.65625 3.1524 4.42188 2.85943C4.12109 2.49224 3.55469 2.50396 2.51563 2.49615C2.16406 2.49224 1.87891 2.69927 1.87891 3.04693C1.87891 3.38677 2.14844 3.59771 2.48828 3.59771C2.82813 3.59771 3.32031 3.61724 3.50391 3.67193C3.6875 3.72662 3.83594 4.0274 3.89063 4.28912C3.89063 4.29302 3.89063 4.29693 3.89453 4.30084C3.90234 4.34771 3.97266 4.69927 3.97266 4.70318L5.53516 12.9688C5.62891 13.5352 5.82031 14.004 6.10156 14.3633C6.42969 14.7852 6.86328 14.9961 7.38672 14.9961H16.6289C16.9258 14.9961 17.1797 14.7696 17.1914 14.4727C17.207 14.1602 16.957 13.9024 16.6445 13.9024H7.37891C7.30078 13.9024 7.1875 13.9024 7.05469 13.793C6.91797 13.6758 6.73047 13.4063 6.60547 12.7774L6.4375 11.8516C6.4375 11.8399 6.44141 11.8321 6.45313 11.8282L17.3008 9.99224C17.4023 9.97662 17.4805 9.89459 17.4922 9.78912L18.1172 5.26568C18.125 5.23443 18.125 5.19927 18.1172 5.16412Z" fill="#333333"/>
</svg>
