<svg width="20" height="20" viewBox="0 0 20 20" fill="none" xmlns="http://www.w3.org/2000/svg">
<path d="M13.75 2.1875H13.7109C12.1602 2.1875 10.7891 3.00781 10 4.21875C9.21094 3.00781 7.83984 2.1875 6.28906 2.1875H6.25C3.83203 2.21094 1.875 4.17578 1.875 6.60156C1.875 8.04688 2.50781 10.0977 3.74219 11.7852C6.09375 15 10 17.8125 10 17.8125C10 17.8125 13.9062 15 16.2578 11.7852C17.4922 10.0977 18.125 8.04688 18.125 6.60156C18.125 4.17578 16.168 2.21094 13.75 2.1875ZM15.375 11.1406C13.7109 13.418 11.1758 15.5195 10 16.4375C8.82422 15.5195 6.28906 13.4141 4.625 11.1367C3.48047 9.57422 2.96875 7.73438 2.96875 6.60156C2.96875 5.71875 3.3125 4.89062 3.92969 4.26562C4.55078 3.64062 5.375 3.29297 6.25781 3.28516H6.29297C6.85156 3.28516 7.40625 3.42969 7.89844 3.70703C8.375 3.97656 8.78906 4.35938 9.08594 4.82031C9.28906 5.12891 9.63281 5.31641 10.0039 5.31641C10.375 5.31641 10.7188 5.12891 10.9219 4.82031C11.2227 4.35938 11.6328 3.97656 12.1094 3.70703C12.6016 3.42969 13.1562 3.28516 13.7148 3.28516H13.75C14.6289 3.29297 15.457 3.64062 16.0781 4.26562C16.6992 4.89062 17.0391 5.72266 17.0391 6.60156C17.0312 7.73438 16.5195 9.57422 15.375 11.1406Z" fill="#333333"/>
</svg>
