<svg width="28" height="28" viewBox="0 0 28 28" fill="none" xmlns="http://www.w3.org/2000/svg">
<circle cx="14" cy="14" r="13.5" stroke="black"/>
<path d="M20.4788 9.90251L18.0813 7.50069C17.7764 7.19124 17.3638 7.01202 16.9299 7.00058C16.496 6.98914 16.0745 7.14637 15.7538 7.43933L14.0038 9.19248L12.875 8.10553C12.7934 8.02379 12.6966 7.95896 12.59 7.91473C12.4834 7.8705 12.3691 7.84773 12.2537 7.84773C12.0207 7.84773 11.7972 7.94046 11.6325 8.10553C11.5509 8.18726 11.4862 8.28429 11.442 8.39107C11.3979 8.49786 11.3751 8.61231 11.3751 8.7279C11.3751 8.96133 11.4677 9.1852 11.6325 9.35027L12.7175 10.4811L7.87869 15.3285C7.59585 15.6143 7.41975 15.9888 7.37993 16.3892L7.00368 20.0445C6.99189 20.1729 7.00852 20.3023 7.05238 20.4235C7.09624 20.5447 7.16626 20.6548 7.25743 20.7458C7.33919 20.827 7.43616 20.8913 7.54277 20.9349C7.64937 20.9785 7.76353 21.0007 7.87869 21H7.95744L11.6062 20.6669C12.0059 20.627 12.3798 20.4506 12.665 20.1672L17.5475 15.2759L18.6326 16.3629C18.7139 16.445 18.8107 16.5103 18.9173 16.5548C19.0239 16.5993 19.1383 16.6222 19.2538 16.6222C19.3693 16.6222 19.4837 16.5993 19.5903 16.5548C19.697 16.5103 19.7937 16.445 19.8751 16.3629C19.9571 16.2814 20.0222 16.1844 20.0666 16.0776C20.111 15.9708 20.1339 15.8562 20.1339 15.7405C20.1339 15.6248 20.111 15.5102 20.0666 15.4034C20.0222 15.2966 19.9571 15.1996 19.8751 15.1181L18.7901 14.0312L20.5401 12.278C20.8457 11.9545 21.0109 11.5229 20.9994 11.0776C20.988 10.6323 20.8007 10.2098 20.4788 9.90251ZM9.1037 16.5645L14.0038 11.6732L16.3575 14.04L13.9163 16.4856" fill="black"/>
</svg>
