<svg width="183" height="37" viewBox="0 0 183 37" fill="none" xmlns="http://www.w3.org/2000/svg">
<path d="M34.3047 36H20.4531V34.3359C21.6719 34.2578 22.6797 34.1016 23.4766 33.8672C24.2891 33.6328 24.6953 33.3438 24.6953 33C24.6953 32.8594 24.6797 32.6875 24.6484 32.4844C24.6172 32.2812 24.5703 32.1016 24.5078 31.9453L21.7422 24.4922H10.0938C9.65625 25.5859 9.29688 26.5391 9.01562 27.3516C8.75 28.1641 8.50781 28.9141 8.28906 29.6016C8.08594 30.2734 7.94531 30.8203 7.86719 31.2422C7.78906 31.6641 7.75 32.0078 7.75 32.2734C7.75 32.8984 8.24219 33.3828 9.22656 33.7266C10.2109 34.0703 11.3203 34.2734 12.5547 34.3359V36H0.0390625V34.3359C0.445312 34.3047 0.953125 34.2188 1.5625 34.0781C2.17188 33.9219 2.67188 33.7188 3.0625 33.4688C3.6875 33.0469 4.17188 32.6094 4.51562 32.1562C4.85938 31.6875 5.19531 31.0469 5.52344 30.2344C7.19531 26.0625 9.03906 21.375 11.0547 16.1719C13.0703 10.9688 14.8672 6.33594 16.4453 2.27344H18.3203L29.4062 30.9609C29.6406 31.5703 29.9062 32.0625 30.2031 32.4375C30.5 32.8125 30.9141 33.1797 31.4453 33.5391C31.8047 33.7578 32.2734 33.9453 32.8516 34.1016C33.4297 34.2422 33.9141 34.3203 34.3047 34.3359V36ZM20.8984 22.4062L15.8594 9.51562L10.9141 22.4062H20.8984ZM52.5859 15.8672C52.5859 16.6641 52.3906 17.375 52 18C51.6094 18.6094 51.0078 18.9141 50.1953 18.9141C49.3203 18.9141 48.6484 18.6875 48.1797 18.2344C47.7266 17.7812 47.5 17.2812 47.5 16.7344C47.5 16.3906 47.5234 16.0781 47.5703 15.7969C47.6328 15.5156 47.6875 15.2344 47.7344 14.9531C47 14.9531 46.1406 15.25 45.1562 15.8438C44.1719 16.4375 43.3359 17.2812 42.6484 18.375V31.8281C42.6484 32.375 42.75 32.8203 42.9531 33.1641C43.1719 33.5078 43.5078 33.7656 43.9609 33.9375C44.3516 34.0938 44.8516 34.2109 45.4609 34.2891C46.0859 34.3672 46.625 34.4219 47.0781 34.4531V36H34.8906V34.4531C35.25 34.4219 35.6172 34.3906 35.9922 34.3594C36.3828 34.3281 36.7188 34.2656 37 34.1719C37.4375 34.0312 37.7578 33.7891 37.9609 33.4453C38.1797 33.0859 38.2891 32.625 38.2891 32.0625V17.7891C38.2891 17.3047 38.1719 16.8281 37.9375 16.3594C37.7188 15.8906 37.4062 15.5156 37 15.2344C36.7031 15.0469 36.3516 14.9141 35.9453 14.8359C35.5391 14.7422 35.1016 14.6797 34.6328 14.6484V13.125L42.3203 12.6094L42.6484 12.9375V16.1953H42.7656C43.7344 14.9297 44.8125 13.9688 46 13.3125C47.1875 12.6562 48.2734 12.3281 49.2578 12.3281C50.2422 12.3281 51.0391 12.6484 51.6484 13.2891C52.2734 13.9297 52.5859 14.7891 52.5859 15.8672ZM68.8516 34.9922C67.8359 35.4141 66.875 35.7656 65.9688 36.0469C65.0625 36.3438 63.9531 36.4922 62.6406 36.4922C60.7031 36.4922 59.3359 36.0078 58.5391 35.0391C57.7578 34.0547 57.3672 32.6719 57.3672 30.8906V15.2344H53.1953V12.9844H57.4609V5.78906H61.7266V12.9844H68.3594V15.2344H61.7734V28.1484C61.7734 29.1172 61.8047 29.9297 61.8672 30.5859C61.9453 31.2266 62.1172 31.7891 62.3828 32.2734C62.6328 32.7266 63.0078 33.0703 63.5078 33.3047C64.0078 33.5391 64.6797 33.6562 65.5234 33.6562C65.9141 33.6562 66.4844 33.625 67.2344 33.5625C68 33.4844 68.5391 33.3906 68.8516 33.2812V34.9922ZM95.9453 35.5781L88.4219 36.0938L88.0703 35.7656V32.8359H87.9297C87.5547 33.2266 87.1328 33.6484 86.6641 34.1016C86.1953 34.5391 85.6562 34.9375 85.0469 35.2969C84.3438 35.7188 83.6641 36.0391 83.0078 36.2578C82.3516 36.4766 81.4219 36.5859 80.2188 36.5859C78.1719 36.5859 76.6094 35.9219 75.5312 34.5938C74.4688 33.25 73.9375 31.3047 73.9375 28.7578V17.6953C73.9375 17.1328 73.8281 16.6641 73.6094 16.2891C73.4062 15.8984 73.1016 15.5625 72.6953 15.2812C72.4141 15.0938 72.0625 14.9609 71.6406 14.8828C71.2188 14.7891 70.7734 14.7266 70.3047 14.6953V13.1719L78.0156 12.6094L78.3672 12.9375V28.9922C78.3672 30.6641 78.7422 31.9219 79.4922 32.7656C80.2422 33.6094 81.1406 34.0312 82.1875 34.0312C83.0469 34.0312 83.8125 33.8984 84.4844 33.6328C85.1562 33.3672 85.7188 33.0547 86.1719 32.6953C86.5938 32.3672 86.9609 32.0234 87.2734 31.6641C87.6016 31.2891 87.8516 30.9453 88.0234 30.6328V17.5312C88.0234 17.0156 87.9141 16.5625 87.6953 16.1719C87.4766 15.7656 87.1719 15.4219 86.7812 15.1406C86.5 14.9531 86.0781 14.8438 85.5156 14.8125C84.9688 14.7656 84.3516 14.7266 83.6641 14.6953V13.1719L92.0547 12.6094L92.4062 12.9375V31.2891C92.4062 31.8203 92.5156 32.2734 92.7344 32.6484C92.9531 33.0234 93.2578 33.3438 93.6484 33.6094C93.9297 33.7812 94.2656 33.8984 94.6562 33.9609C95.0469 34.0078 95.4766 34.0391 95.9453 34.0547V35.5781ZM114.039 24.6797C114.68 25.2422 115.172 25.8906 115.516 26.625C115.859 27.3594 116.031 28.2578 116.031 29.3203C116.031 31.4609 115.227 33.2109 113.617 34.5703C112.023 35.9297 109.953 36.6094 107.406 36.6094C106.062 36.6094 104.82 36.3672 103.68 35.8828C102.555 35.3984 101.75 34.9531 101.266 34.5469L100.797 36.0703H99.0391L98.8047 28.0312H100.422C100.547 28.6406 100.812 29.3516 101.219 30.1641C101.625 30.9766 102.117 31.7109 102.695 32.3672C103.305 33.0547 104.031 33.6328 104.875 34.1016C105.734 34.5703 106.695 34.8047 107.758 34.8047C109.258 34.8047 110.414 34.4688 111.227 33.7969C112.039 33.1094 112.445 32.1328 112.445 30.8672C112.445 30.2109 112.312 29.6484 112.047 29.1797C111.797 28.6953 111.422 28.2734 110.922 27.9141C110.406 27.5547 109.773 27.2344 109.023 26.9531C108.273 26.6562 107.438 26.3672 106.516 26.0859C105.781 25.8672 104.961 25.5703 104.055 25.1953C103.164 24.8047 102.398 24.3516 101.758 23.8359C101.07 23.2891 100.508 22.6172 100.07 21.8203C99.6328 21.0234 99.4141 20.0859 99.4141 19.0078C99.4141 17.1172 100.117 15.5156 101.523 14.2031C102.93 12.8906 104.812 12.2344 107.172 12.2344C108.078 12.2344 109 12.3516 109.938 12.5859C110.891 12.8203 111.664 13.1016 112.258 13.4297L112.797 12.2109H114.484L114.836 19.6406H113.219C112.891 17.9844 112.18 16.6406 111.086 15.6094C110.008 14.5625 108.688 14.0391 107.125 14.0391C105.844 14.0391 104.836 14.3594 104.102 15C103.367 15.6406 103 16.4141 103 17.3203C103 18.0234 103.117 18.6094 103.352 19.0781C103.602 19.5469 103.969 19.9453 104.453 20.2734C104.922 20.5859 105.508 20.8828 106.211 21.1641C106.93 21.4297 107.812 21.7344 108.859 22.0781C109.891 22.4062 110.859 22.7891 111.766 23.2266C112.688 23.6641 113.445 24.1484 114.039 24.6797ZM130.773 36H119.594V34.4531C119.953 34.4219 120.32 34.3906 120.695 34.3594C121.086 34.3281 121.422 34.2656 121.703 34.1719C122.141 34.0312 122.461 33.7891 122.664 33.4453C122.883 33.0859 122.992 32.625 122.992 32.0625V17.7891C122.992 17.2891 122.875 16.8359 122.641 16.4297C122.422 16.0078 122.109 15.6562 121.703 15.375C121.406 15.1875 120.977 15.0312 120.414 14.9062C119.852 14.7656 119.336 14.6797 118.867 14.6484V13.125L127.023 12.6094L127.352 12.9375V31.7812C127.352 32.3281 127.453 32.7812 127.656 33.1406C127.875 33.5 128.211 33.7656 128.664 33.9375C129.008 34.0781 129.344 34.1953 129.672 34.2891C130 34.3672 130.367 34.4219 130.773 34.4531V36ZM127.82 3.49219C127.82 4.38281 127.523 5.16406 126.93 5.83594C126.352 6.49219 125.633 6.82031 124.773 6.82031C123.977 6.82031 123.281 6.50781 122.688 5.88281C122.109 5.24219 121.82 4.51563 121.82 3.70312C121.82 2.84375 122.109 2.09375 122.688 1.45312C123.281 0.8125 123.977 0.492188 124.773 0.492188C125.664 0.492188 126.391 0.796875 126.953 1.40625C127.531 2 127.82 2.69531 127.82 3.49219ZM159.133 36H147.812V34.4531C148.172 34.4219 148.562 34.3906 148.984 34.3594C149.422 34.3281 149.781 34.2656 150.062 34.1719C150.5 34.0312 150.82 33.7891 151.023 33.4453C151.242 33.0859 151.352 32.625 151.352 32.0625V20.1797C151.352 18.5391 150.961 17.2734 150.18 16.3828C149.414 15.4922 148.477 15.0469 147.367 15.0469C146.539 15.0469 145.781 15.1797 145.094 15.4453C144.406 15.6953 143.797 16.0078 143.266 16.3828C142.75 16.7422 142.336 17.1328 142.023 17.5547C141.727 17.9609 141.508 18.2891 141.367 18.5391V31.8281C141.367 32.3594 141.477 32.7969 141.695 33.1406C141.914 33.4844 142.242 33.75 142.68 33.9375C143.008 34.0938 143.359 34.2109 143.734 34.2891C144.125 34.3672 144.523 34.4219 144.93 34.4531V36H133.609V34.4531C133.969 34.4219 134.336 34.3906 134.711 34.3594C135.102 34.3281 135.438 34.2656 135.719 34.1719C136.156 34.0312 136.477 33.7891 136.68 33.4453C136.898 33.0859 137.008 32.625 137.008 32.0625V17.7891C137.008 17.2578 136.891 16.7734 136.656 16.3359C136.438 15.8828 136.125 15.5156 135.719 15.2344C135.422 15.0469 135.07 14.9141 134.664 14.8359C134.258 14.7422 133.82 14.6797 133.352 14.6484V13.125L141.039 12.6094L141.367 12.9375V16.1953H141.484C141.859 15.8203 142.328 15.375 142.891 14.8594C143.453 14.3281 143.984 13.8984 144.484 13.5703C145.062 13.1953 145.75 12.8828 146.547 12.6328C147.344 12.3828 148.242 12.2578 149.242 12.2578C151.461 12.2578 153.102 12.9531 154.164 14.3438C155.242 15.7188 155.781 17.5547 155.781 19.8516V31.875C155.781 32.4219 155.875 32.8672 156.062 33.2109C156.25 33.5391 156.57 33.7969 157.023 33.9844C157.398 34.1406 157.719 34.25 157.984 34.3125C158.266 34.375 158.648 34.4219 159.133 34.4531V36ZM182.5 30.5625C181.531 32.4062 180.234 33.875 178.609 34.9688C176.984 36.0625 175.117 36.6094 173.008 36.6094C171.148 36.6094 169.516 36.2812 168.109 35.625C166.719 34.9688 165.57 34.0781 164.664 32.9531C163.758 31.8281 163.078 30.5156 162.625 29.0156C162.188 27.5156 161.969 25.9297 161.969 24.2578C161.969 22.7578 162.203 21.2891 162.672 19.8516C163.156 18.3984 163.859 17.0938 164.781 15.9375C165.672 14.8281 166.773 13.9375 168.086 13.2656C169.414 12.5781 170.898 12.2344 172.539 12.2344C174.227 12.2344 175.672 12.5 176.875 13.0312C178.078 13.5625 179.055 14.2891 179.805 15.2109C180.523 16.0859 181.055 17.1172 181.398 18.3047C181.758 19.4922 181.938 20.7812 181.938 22.1719V23.7188H166.633C166.633 25.2344 166.773 26.6094 167.055 27.8438C167.352 29.0781 167.812 30.1641 168.438 31.1016C169.047 32.0078 169.844 32.7266 170.828 33.2578C171.812 33.7734 172.984 34.0312 174.344 34.0312C175.734 34.0312 176.93 33.7109 177.93 33.0703C178.945 32.4141 179.922 31.2422 180.859 29.5547L182.5 30.5625ZM177.32 21.75C177.32 20.875 177.242 19.9375 177.086 18.9375C176.945 17.9375 176.711 17.1016 176.383 16.4297C176.023 15.7109 175.531 15.125 174.906 14.6719C174.281 14.2188 173.477 13.9922 172.492 13.9922C170.852 13.9922 169.484 14.6797 168.391 16.0547C167.312 17.4141 166.727 19.3125 166.633 21.75H177.32Z" fill="black"/>
</svg>
