<svg width="24" height="14" viewBox="0 0 24 14" fill="none" xmlns="http://www.w3.org/2000/svg">
<path d="M22.3125 2.3125H1.6875C1.17187 2.3125 0.75 1.89063 0.75 1.375C0.75 0.859375 1.17187 0.4375 1.6875 0.4375H22.3125C22.8281 0.4375 23.25 0.859375 23.25 1.375C23.25 1.89063 22.8281 2.3125 22.3125 2.3125ZM22.3125 7.9375H1.6875C1.17187 7.9375 0.75 7.51563 0.75 7C0.75 6.48437 1.17187 6.0625 1.6875 6.0625H22.3125C22.8281 6.0625 23.25 6.48437 23.25 7C23.25 7.51563 22.8281 7.9375 22.3125 7.9375ZM22.3125 13.5625H1.6875C1.17187 13.5625 0.75 13.1406 0.75 12.625C0.75 12.1094 1.17187 11.6875 1.6875 11.6875H22.3125C22.8281 11.6875 23.25 12.1094 23.25 12.625C23.25 13.1406 22.8281 13.5625 22.3125 13.5625Z" fill="#333333"/>
</svg>
