<svg width="16" height="15" viewBox="0 0 16 15" fill="none" xmlns="http://www.w3.org/2000/svg">
<g clip-path="url(#clip0_15_971)">
<path d="M8.49854 4.13086C6.63525 4.13086 5.13232 5.63379 5.13232 7.49707C5.13232 9.36035 6.63525 10.8633 8.49854 10.8633C10.3618 10.8633 11.8647 9.36035 11.8647 7.49707C11.8647 5.63379 10.3618 4.13086 8.49854 4.13086ZM8.49854 9.68555C7.29443 9.68555 6.31006 8.7041 6.31006 7.49707C6.31006 6.29004 7.2915 5.30859 8.49854 5.30859C9.70557 5.30859 10.687 6.29004 10.687 7.49707C10.687 8.7041 9.70264 9.68555 8.49854 9.68555ZM12.7876 3.99316C12.7876 4.42969 12.436 4.77832 12.0024 4.77832C11.5659 4.77832 11.2173 4.42676 11.2173 3.99316C11.2173 3.55957 11.5688 3.20801 12.0024 3.20801C12.436 3.20801 12.7876 3.55957 12.7876 3.99316ZM15.0171 4.79004C14.9673 3.73828 14.7271 2.80664 13.9565 2.03906C13.189 1.27148 12.2573 1.03125 11.2056 0.978516C10.1216 0.916992 6.87256 0.916992 5.78857 0.978516C4.73975 1.02832 3.80811 1.26855 3.0376 2.03613C2.26709 2.80371 2.02979 3.73535 1.97705 4.78711C1.91553 5.87109 1.91553 9.12012 1.97705 10.2041C2.02686 11.2559 2.26709 12.1875 3.0376 12.9551C3.80811 13.7227 4.73682 13.9629 5.78857 14.0156C6.87256 14.0771 10.1216 14.0771 11.2056 14.0156C12.2573 13.9658 13.189 13.7256 13.9565 12.9551C14.7241 12.1875 14.9644 11.2559 15.0171 10.2041C15.0786 9.12012 15.0786 5.87402 15.0171 4.79004ZM13.6167 11.3672C13.3882 11.9414 12.9458 12.3838 12.3687 12.6152C11.5044 12.958 9.45361 12.8789 8.49854 12.8789C7.54346 12.8789 5.48975 12.9551 4.62842 12.6152C4.0542 12.3867 3.61182 11.9443 3.38037 11.3672C3.0376 10.5029 3.1167 8.45215 3.1167 7.49707C3.1167 6.54199 3.04053 4.48828 3.38037 3.62695C3.60889 3.05273 4.05127 2.61035 4.62842 2.37891C5.49268 2.03613 7.54346 2.11523 8.49854 2.11523C9.45361 2.11523 11.5073 2.03906 12.3687 2.37891C12.9429 2.60742 13.3853 3.0498 13.6167 3.62695C13.9595 4.49121 13.8804 6.54199 13.8804 7.49707C13.8804 8.45215 13.9595 10.5059 13.6167 11.3672Z" fill="#333333"/>
</g>
<defs>
<clipPath id="clip0_15_971">
<rect width="15" height="15" fill="white" transform="translate(0.995605)"/>
</clipPath>
</defs>
</svg>
