<svg width="19" height="18" viewBox="0 0 19 18" fill="none" xmlns="http://www.w3.org/2000/svg">
<path d="M8.69249 10.0575C8.99999 10.35 8.99999 10.83 8.69249 11.1225C8.39999 11.415 7.91999 11.415 7.62749 11.1225C6.16499 9.65999 6.16499 7.28249 7.62749 5.81999L10.2825 3.16499C11.745 1.70249 14.1225 1.70249 15.585 3.16499C17.0475 4.62749 17.0475 7.00499 15.585 8.46749L14.4675 9.58499C14.475 8.96999 14.3775 8.35499 14.1675 7.76999L14.52 7.40999C15.405 6.53249 15.405 5.10749 14.52 4.22999C13.6425 3.34499 12.2175 3.34499 11.34 4.22999L8.69249 6.87749C7.80749 7.75499 7.80749 9.17999 8.69249 10.0575ZM10.8075 6.87749C11.1 6.58499 11.58 6.58499 11.8725 6.87749C13.335 8.33999 13.335 10.7175 11.8725 12.18L9.21749 14.835C7.75499 16.2975 5.37749 16.2975 3.91499 14.835C2.45249 13.3725 2.45249 10.995 3.91499 9.53249L5.03249 8.41499C5.02499 9.02999 5.12249 9.64499 5.33249 10.2375L4.97999 10.59C4.09499 11.4675 4.09499 12.8925 4.97999 13.77C5.85749 14.655 7.28249 14.655 8.15999 13.77L10.8075 11.1225C11.6925 10.245 11.6925 8.81999 10.8075 7.94249C10.5 7.64999 10.5 7.16999 10.8075 6.87749Z" fill="#333333"/>
</svg>
