<svg width="138" height="28" viewBox="0 0 138 28" fill="none" xmlns="http://www.w3.org/2000/svg">
<path d="M25.9785 27H15.5898V25.752C16.5039 25.6934 17.2598 25.5762 17.8574 25.4004C18.4668 25.2246 18.7715 25.0078 18.7715 24.75C18.7715 24.6445 18.7598 24.5156 18.7363 24.3633C18.7129 24.2109 18.6777 24.0762 18.6309 23.959L16.5566 18.3691H7.82031C7.49219 19.1895 7.22266 19.9043 7.01172 20.5137C6.8125 21.123 6.63086 21.6855 6.4668 22.2012C6.31445 22.7051 6.20898 23.1152 6.15039 23.4316C6.0918 23.748 6.0625 24.0059 6.0625 24.2051C6.0625 24.6738 6.43164 25.0371 7.16992 25.2949C7.9082 25.5527 8.74023 25.7051 9.66602 25.752V27H0.279297V25.752C0.583984 25.7285 0.964844 25.6641 1.42188 25.5586C1.87891 25.4414 2.25391 25.2891 2.54688 25.1016C3.01562 24.7852 3.37891 24.457 3.63672 24.1172C3.89453 23.7656 4.14648 23.2852 4.39258 22.6758C5.64648 19.5469 7.0293 16.0312 8.54102 12.1289C10.0527 8.22656 11.4004 4.75195 12.584 1.70508H13.9902L22.3047 23.2207C22.4805 23.6777 22.6797 24.0469 22.9023 24.3281C23.125 24.6094 23.4355 24.8848 23.834 25.1543C24.1035 25.3184 24.4551 25.459 24.8887 25.5762C25.3223 25.6816 25.6855 25.7402 25.9785 25.752V27ZM15.9238 16.8047L12.1445 7.13672L8.43555 16.8047H15.9238ZM39.6895 11.9004C39.6895 12.498 39.543 13.0312 39.25 13.5C38.957 13.957 38.5059 14.1855 37.8965 14.1855C37.2402 14.1855 36.7363 14.0156 36.3848 13.6758C36.0449 13.3359 35.875 12.9609 35.875 12.5508C35.875 12.293 35.8926 12.0586 35.9277 11.8477C35.9746 11.6367 36.0156 11.4258 36.0508 11.2148C35.5 11.2148 34.8555 11.4375 34.1172 11.8828C33.3789 12.3281 32.752 12.9609 32.2363 13.7812V23.8711C32.2363 24.2812 32.3125 24.6152 32.4648 24.873C32.6289 25.1309 32.8809 25.3242 33.2207 25.4531C33.5137 25.5703 33.8887 25.6582 34.3457 25.7168C34.8145 25.7754 35.2188 25.8164 35.5586 25.8398V27H26.418V25.8398C26.6875 25.8164 26.9629 25.793 27.2441 25.7695C27.5371 25.7461 27.7891 25.6992 28 25.6289C28.3281 25.5234 28.5684 25.3418 28.7207 25.084C28.8848 24.8145 28.9668 24.4688 28.9668 24.0469V13.3418C28.9668 12.9785 28.8789 12.6211 28.7031 12.2695C28.5391 11.918 28.3047 11.6367 28 11.4258C27.7773 11.2852 27.5137 11.1855 27.209 11.127C26.9043 11.0566 26.5762 11.0098 26.2246 10.9863V9.84375L31.9902 9.45703L32.2363 9.70312V12.1465H32.3242C33.0508 11.1973 33.8594 10.4766 34.75 9.98438C35.6406 9.49219 36.4551 9.24609 37.1934 9.24609C37.9316 9.24609 38.5293 9.48633 38.9863 9.9668C39.4551 10.4473 39.6895 11.0918 39.6895 11.9004ZM51.8887 26.2441C51.127 26.5605 50.4062 26.8242 49.7266 27.0352C49.0469 27.2578 48.2148 27.3691 47.2305 27.3691C45.7773 27.3691 44.752 27.0059 44.1543 26.2793C43.5684 25.541 43.2754 24.5039 43.2754 23.168V11.4258H40.1465V9.73828H43.3457V4.3418H46.5449V9.73828H51.5195V11.4258H46.5801V21.1113C46.5801 21.8379 46.6035 22.4473 46.6504 22.9395C46.709 23.4199 46.8379 23.8418 47.0371 24.2051C47.2246 24.5449 47.5059 24.8027 47.8809 24.9785C48.2559 25.1543 48.7598 25.2422 49.3926 25.2422C49.6855 25.2422 50.1133 25.2188 50.6758 25.1719C51.25 25.1133 51.6543 25.043 51.8887 24.9609V26.2441ZM72.209 26.6836L66.5664 27.0703L66.3027 26.8242V24.627H66.1973C65.916 24.9199 65.5996 25.2363 65.248 25.5762C64.8965 25.9043 64.4922 26.2031 64.0352 26.4727C63.5078 26.7891 62.998 27.0293 62.5059 27.1934C62.0137 27.3574 61.3164 27.4395 60.4141 27.4395C58.8789 27.4395 57.707 26.9414 56.8984 25.9453C56.1016 24.9375 55.7031 23.4785 55.7031 21.5684V13.2715C55.7031 12.8496 55.6211 12.498 55.457 12.2168C55.3047 11.9238 55.0762 11.6719 54.7715 11.4609C54.5605 11.3203 54.2969 11.2207 53.9805 11.1621C53.6641 11.0918 53.3301 11.0449 52.9785 11.0215V9.87891L58.7617 9.45703L59.0254 9.70312V21.7441C59.0254 22.998 59.3066 23.9414 59.8691 24.5742C60.4316 25.207 61.1055 25.5234 61.8906 25.5234C62.5352 25.5234 63.1094 25.4238 63.6133 25.2246C64.1172 25.0254 64.5391 24.791 64.8789 24.5215C65.1953 24.2754 65.4707 24.0176 65.7051 23.748C65.9512 23.4668 66.1387 23.209 66.2676 22.9746V13.1484C66.2676 12.7617 66.1855 12.4219 66.0215 12.1289C65.8574 11.8242 65.6289 11.5664 65.3359 11.3555C65.125 11.2148 64.8086 11.1328 64.3867 11.1094C63.9766 11.0742 63.5137 11.0449 62.998 11.0215V9.87891L69.291 9.45703L69.5547 9.70312V23.4668C69.5547 23.8652 69.6367 24.2051 69.8008 24.4863C69.9648 24.7676 70.1934 25.0078 70.4863 25.207C70.6973 25.3359 70.9492 25.4238 71.2422 25.4707C71.5352 25.5059 71.8574 25.5293 72.209 25.541V26.6836ZM85.7793 18.5098C86.2598 18.9316 86.6289 19.418 86.8867 19.9688C87.1445 20.5195 87.2734 21.1934 87.2734 21.9902C87.2734 23.5957 86.6699 24.9082 85.4629 25.9277C84.2676 26.9473 82.7148 27.457 80.8047 27.457C79.7969 27.457 78.8652 27.2754 78.0098 26.9121C77.166 26.5488 76.5625 26.2148 76.1992 25.9102L75.8477 27.0527H74.5293L74.3535 21.0234H75.5664C75.6602 21.4805 75.8594 22.0137 76.1641 22.623C76.4688 23.2324 76.8379 23.7832 77.2715 24.2754C77.7285 24.791 78.2734 25.2246 78.9062 25.5762C79.5508 25.9277 80.2715 26.1035 81.0684 26.1035C82.1934 26.1035 83.0605 25.8516 83.6699 25.3477C84.2793 24.832 84.584 24.0996 84.584 23.1504C84.584 22.6582 84.4844 22.2363 84.2852 21.8848C84.0977 21.5215 83.8164 21.2051 83.4414 20.9355C83.0547 20.666 82.5801 20.4258 82.0176 20.2148C81.4551 19.9922 80.8281 19.7754 80.1367 19.5645C79.5859 19.4004 78.9707 19.1777 78.291 18.8965C77.623 18.6035 77.0488 18.2637 76.5684 17.877C76.0527 17.4668 75.6309 16.9629 75.3027 16.3652C74.9746 15.7676 74.8105 15.0645 74.8105 14.2559C74.8105 12.8379 75.3379 11.6367 76.3926 10.6523C77.4473 9.66797 78.8594 9.17578 80.6289 9.17578C81.3086 9.17578 82 9.26367 82.7031 9.43945C83.418 9.61523 83.998 9.82617 84.4434 10.0723L84.8477 9.1582H86.1133L86.377 14.7305H85.1641C84.918 13.4883 84.3848 12.4805 83.5645 11.707C82.7559 10.9219 81.7656 10.5293 80.5938 10.5293C79.6328 10.5293 78.877 10.7695 78.3262 11.25C77.7754 11.7305 77.5 12.3105 77.5 12.9902C77.5 13.5176 77.5879 13.957 77.7637 14.3086C77.9512 14.6602 78.2266 14.959 78.5898 15.2051C78.9414 15.4395 79.3809 15.6621 79.9082 15.873C80.4473 16.0723 81.1094 16.3008 81.8945 16.5586C82.668 16.8047 83.3945 17.0918 84.0742 17.4199C84.7656 17.748 85.334 18.1113 85.7793 18.5098ZM98.3301 27H89.9453V25.8398C90.2148 25.8164 90.4902 25.793 90.7715 25.7695C91.0645 25.7461 91.3164 25.6992 91.5273 25.6289C91.8555 25.5234 92.0957 25.3418 92.248 25.084C92.4121 24.8145 92.4941 24.4688 92.4941 24.0469V13.3418C92.4941 12.9668 92.4062 12.627 92.2305 12.3223C92.0664 12.0059 91.832 11.7422 91.5273 11.5312C91.3047 11.3906 90.9824 11.2734 90.5605 11.1797C90.1387 11.0742 89.752 11.0098 89.4004 10.9863V9.84375L95.5176 9.45703L95.7637 9.70312V23.8359C95.7637 24.2461 95.8398 24.5859 95.9922 24.8555C96.1562 25.125 96.4082 25.3242 96.748 25.4531C97.0059 25.5586 97.2578 25.6465 97.5039 25.7168C97.75 25.7754 98.0254 25.8164 98.3301 25.8398V27ZM96.1152 2.61914C96.1152 3.28711 95.8926 3.87305 95.4473 4.37695C95.0137 4.86914 94.4746 5.11523 93.8301 5.11523C93.2324 5.11523 92.7109 4.88086 92.2656 4.41211C91.832 3.93164 91.6152 3.38672 91.6152 2.77734C91.6152 2.13281 91.832 1.57031 92.2656 1.08984C92.7109 0.609375 93.2324 0.369141 93.8301 0.369141C94.498 0.369141 95.043 0.597656 95.4648 1.05469C95.8984 1.5 96.1152 2.02148 96.1152 2.61914ZM119.6 27H111.109V25.8398C111.379 25.8164 111.672 25.793 111.988 25.7695C112.316 25.7461 112.586 25.6992 112.797 25.6289C113.125 25.5234 113.365 25.3418 113.518 25.084C113.682 24.8145 113.764 24.4688 113.764 24.0469V15.1348C113.764 13.9043 113.471 12.9551 112.885 12.2871C112.311 11.6191 111.607 11.2852 110.775 11.2852C110.154 11.2852 109.586 11.3848 109.07 11.584C108.555 11.7715 108.098 12.0059 107.699 12.2871C107.312 12.5566 107.002 12.8496 106.768 13.166C106.545 13.4707 106.381 13.7168 106.275 13.9043V23.8711C106.275 24.2695 106.357 24.5977 106.521 24.8555C106.686 25.1133 106.932 25.3125 107.26 25.4531C107.506 25.5703 107.77 25.6582 108.051 25.7168C108.344 25.7754 108.643 25.8164 108.947 25.8398V27H100.457V25.8398C100.727 25.8164 101.002 25.793 101.283 25.7695C101.576 25.7461 101.828 25.6992 102.039 25.6289C102.367 25.5234 102.607 25.3418 102.76 25.084C102.924 24.8145 103.006 24.4688 103.006 24.0469V13.3418C103.006 12.9434 102.918 12.5801 102.742 12.252C102.578 11.9121 102.344 11.6367 102.039 11.4258C101.816 11.2852 101.553 11.1855 101.248 11.127C100.943 11.0566 100.615 11.0098 100.264 10.9863V9.84375L106.029 9.45703L106.275 9.70312V12.1465H106.363C106.645 11.8652 106.996 11.5312 107.418 11.1445C107.84 10.7461 108.238 10.4238 108.613 10.1777C109.047 9.89648 109.562 9.66211 110.16 9.47461C110.758 9.28711 111.432 9.19336 112.182 9.19336C113.846 9.19336 115.076 9.71484 115.873 10.7578C116.682 11.7891 117.086 13.166 117.086 14.8887V23.9062C117.086 24.3164 117.156 24.6504 117.297 24.9082C117.438 25.1543 117.678 25.3477 118.018 25.4883C118.299 25.6055 118.539 25.6875 118.738 25.7344C118.949 25.7812 119.236 25.8164 119.6 25.8398V27ZM137.125 22.9219C136.398 24.3047 135.426 25.4062 134.207 26.2266C132.988 27.0469 131.588 27.457 130.006 27.457C128.611 27.457 127.387 27.2109 126.332 26.7188C125.289 26.2266 124.428 25.5586 123.748 24.7148C123.068 23.8711 122.559 22.8867 122.219 21.7617C121.891 20.6367 121.727 19.4473 121.727 18.1934C121.727 17.0684 121.902 15.9668 122.254 14.8887C122.617 13.7988 123.145 12.8203 123.836 11.9531C124.504 11.1211 125.33 10.4531 126.314 9.94922C127.311 9.43359 128.424 9.17578 129.654 9.17578C130.92 9.17578 132.004 9.375 132.906 9.77344C133.809 10.1719 134.541 10.7168 135.104 11.4082C135.643 12.0645 136.041 12.8379 136.299 13.7285C136.568 14.6191 136.703 15.5859 136.703 16.6289V17.7891H125.225C125.225 18.9258 125.33 19.957 125.541 20.8828C125.764 21.8086 126.109 22.623 126.578 23.3262C127.035 24.0059 127.633 24.5449 128.371 24.9434C129.109 25.3301 129.988 25.5234 131.008 25.5234C132.051 25.5234 132.947 25.2832 133.697 24.8027C134.459 24.3105 135.191 23.4316 135.895 22.166L137.125 22.9219ZM133.24 16.3125C133.24 15.6562 133.182 14.9531 133.064 14.2031C132.959 13.4531 132.783 12.8262 132.537 12.3223C132.268 11.7832 131.898 11.3438 131.43 11.0039C130.961 10.6641 130.357 10.4941 129.619 10.4941C128.389 10.4941 127.363 11.0098 126.543 12.041C125.734 13.0605 125.295 14.4844 125.225 16.3125H133.24Z" fill="#B1AFAD"/>
</svg>
